<svg width="69" height="67" viewBox="0 0 69 67" fill="none" xmlns="http://www.w3.org/2000/svg">
<rect opacity="0.5" x="10" y="46" width="32" height="40" rx="3" transform="rotate(-90 10 46)" fill="#1348E4"/>
<rect opacity="0.7" x="36.6667" y="18" width="9.33333" height="9.33333" rx="4" fill="white"/>
<rect opacity="0.5" x="14" y="39.3333" width="32" height="2.66667" rx="1" fill="white"/>
<path d="M31.0753 33.7534L30.8347 34.0426C30.8307 34.0468 30.8266 34.0511 30.8225 34.0554C30.7961 34.083 30.7669 34.1137 30.7314 34.1519L30.7294 34.154C30.5258 34.3749 30.319 34.5835 30.1045 34.7787C30.0618 34.8172 30.0212 34.8517 29.9743 34.8916C29.9522 34.9104 29.9286 34.9305 29.9027 34.9528L29.9021 34.9533C29.6929 35.1336 29.4782 35.3046 29.2579 35.4661L29.0962 35.5798C27.4116 36.7643 25.4018 37.4001 23.3417 37.4001C21.2817 37.4001 19.2719 36.7643 17.5873 35.5798L17.4144 35.4582C17.1988 35.3005 16.9884 35.1317 16.7814 34.9533L16.7808 34.9528C16.752 34.928 16.7268 34.9066 16.7036 34.887C16.6586 34.8489 16.6214 34.8174 16.5806 34.7802L16.5792 34.7789C16.3653 34.585 16.1586 34.3758 15.9541 34.154L15.9521 34.1519C15.9149 34.1119 15.8852 34.0808 15.8589 34.0534C15.8581 34.0526 15.8574 34.0518 15.8566 34.051L15.6049 33.7513C14.095 31.953 13.2672 29.681 13.2667 27.3339L13.2667 27.3335C13.2653 25.7183 13.6532 24.1264 14.3977 22.6927C15.1423 21.2589 16.2215 20.0254 17.5441 19.0964C18.8667 18.1674 20.3939 17.5704 21.9963 17.3559C23.5988 17.1413 25.2294 17.3156 26.7502 17.8638C28.271 18.4121 29.6372 19.3183 30.7332 20.5057C31.8293 21.6931 32.623 23.1267 33.0472 24.6853C33.4715 26.244 33.5137 27.8817 33.1705 29.4601C32.8273 31.0385 32.1086 32.5111 31.0753 33.7534ZM21.0536 29.7813H21.0533C19.8946 29.7819 18.7825 30.2383 17.9578 31.0519C17.1331 31.8656 16.6621 32.971 16.6468 34.1292L17.2467 34.1371L16.8452 34.583C18.6277 36.1878 20.9418 37.0759 23.341 37.0759C25.7401 37.0759 28.0543 36.1878 29.8367 34.583L30.0388 34.401L30.0352 34.1292C30.0199 32.971 29.5488 31.8656 28.7241 31.0519C27.8994 30.2383 26.7874 29.7819 25.6286 29.7813H25.6283H21.0536ZM25.5803 21.3182C24.9174 20.8756 24.1381 20.6394 23.341 20.6394C22.272 20.6394 21.2468 21.0637 20.4908 21.8191C19.7348 22.5745 19.31 23.5991 19.31 24.6676C19.31 25.4644 19.5464 26.2433 19.9894 26.9058C20.4324 27.5682 21.062 28.0844 21.7985 28.3893C22.535 28.6941 23.3455 28.7738 24.1273 28.6184C24.9091 28.463 25.6274 28.0795 26.1912 27.5162C26.755 26.9528 27.139 26.2351 27.2945 25.4536C27.4501 24.6721 27.3703 23.862 27.0651 23.1259C26.7599 22.3898 26.2432 21.7607 25.5803 21.3182Z" stroke="white" stroke-width="1.2"/>
<rect width="60" height="60" rx="5" fill="#1348E4" fill-opacity="0.05"/>
<rect x="0.5" y="0.5" width="59" height="59" rx="4.5" stroke="#1348E4" stroke-opacity="0.4" stroke-dasharray="5 5"/>
<rect x="49" y="47" width="20" height="20" rx="10" fill="#839FF1"/>
<path d="M57.768 55.632C57.72 55.456 57.688 55.248 57.688 55.056C57.688 54.08 58.232 53.328 59.336 53.328C60.376 53.328 60.904 54 60.904 54.752C60.904 55.472 60.552 56.016 59.672 56.544L57.96 57.568C56.104 58.688 55.528 60.176 55.512 62H63.192V60.096H58.216C58.376 59.696 58.712 59.408 59.112 59.152L61.112 57.936C62.392 57.152 63.128 56.064 63.128 54.72C63.128 52.912 61.704 51.376 59.384 51.376C56.968 51.376 55.592 53.024 55.592 54.848C55.592 55.104 55.64 55.424 55.672 55.568L57.768 55.632Z" fill="white"/>
</svg>
