<svg width="30" height="30" viewBox="0 0 30 30" fill="none" xmlns="http://www.w3.org/2000/svg">
    <path d="M30 15C30 11.1613 28.5363 7.32197 25.6074 4.3932C19.7497 -1.4644 10.251 -1.4644 4.39333 4.3932C-1.46444 10.2508 -1.46444 19.7492 4.39333 25.6068C10.2511 31.4644 19.7497 31.4644 25.6074 25.6068C28.5363 22.678 30 18.8386 30 15ZM26.0817 15C26.0817 17.8359 25.001 20.6727 22.8371 22.8365C18.5094 27.1642 11.4914 27.1642 7.16365 22.8365C2.83596 18.5089 2.83596 11.4911 7.16365 7.16345C11.4914 2.8358 18.5094 2.83582 22.8371 7.16345C25.001 9.32727 26.0817 12.164 26.0817 15ZM23.564 14.4656C23.564 13.9134 23.1163 13.4656 22.564 13.4656L17.5567 13.4656C17.0044 13.4656 16.5567 13.0179 16.5567 12.4656L16.5567 10.5821C16.5567 10.0299 16.109 9.58215 15.5567 9.58215L13.7208 9.58215C13.1685 9.58215 12.7208 10.0299 12.7208 10.5821L12.7208 16.3015C12.7208 16.8538 13.1685 17.3015 13.7208 17.3015L22.564 17.3015C23.1163 17.3015 23.564 16.8538 23.564 16.3015L23.564 14.4656Z" fill="#FFC56D" />
</svg>
    