<svg width="60" height="60" viewBox="0 0 60 60" fill="none" xmlns="http://www.w3.org/2000/svg">
<rect width="60" height="60" rx="5" fill="#1348E4" fill-opacity="0.05"/>
<rect x="0.5" y="0.5" width="59" height="59" rx="4.5" stroke="#1348E4" stroke-opacity="0.4" stroke-dasharray="5 5"/>
<rect opacity="0.5" x="14" y="10" width="32" height="40" rx="3" fill="#1348E4"/>
<path fill-rule="evenodd" clip-rule="evenodd" d="M19.9167 23.3333C19.9167 17.7643 24.4311 13.25 30.0001 13.25C35.5691 13.25 40.0834 17.7643 40.0834 23.3333C40.0834 28.9023 35.5691 33.4167 30.0001 33.4167C24.4311 33.4167 19.9167 28.9023 19.9167 23.3333ZM30.0001 14.75C25.2595 14.75 21.4167 18.5927 21.4167 23.3333C21.4167 28.0739 25.2595 31.9167 30.0001 31.9167C34.7407 31.9167 38.5834 28.0739 38.5834 23.3333C38.5834 18.5927 34.7407 14.75 30.0001 14.75Z" fill="white"/>
<path fill-rule="evenodd" clip-rule="evenodd" d="M19.9164 23.3333C19.9164 22.919 20.2522 22.5833 20.6664 22.5833H39.333C39.7473 22.5833 40.083 22.919 40.083 23.3333C40.083 23.7475 39.7473 24.0833 39.333 24.0833H20.6664C20.2522 24.0833 19.9164 23.7475 19.9164 23.3333Z" fill="white"/>
<path fill-rule="evenodd" clip-rule="evenodd" d="M28.0007 14.2181C28.5357 13.6524 29.2106 13.25 29.9987 13.25C30.7868 13.25 31.4618 13.6524 31.9968 14.2181C32.5303 14.7822 32.9762 15.5583 33.3349 16.4551C34.054 18.2528 34.482 20.6849 34.482 23.3333C34.482 25.9817 34.054 28.4139 33.3349 30.2116C32.9762 31.1084 32.5303 31.8844 31.9968 32.4486C31.4618 33.0143 30.7868 33.4167 29.9987 33.4167C29.2106 33.4167 28.5357 33.0143 28.0007 32.4486C27.4672 31.8844 27.0213 31.1084 26.6625 30.2116C25.9434 28.4139 25.5154 25.9817 25.5154 23.3333C25.5154 20.6849 25.9434 18.2528 26.6625 16.4551C27.0213 15.5583 27.4672 14.7822 28.0007 14.2181ZM28.0553 17.0122C27.4231 18.5924 27.0154 20.8269 27.0154 23.3333C27.0154 25.8397 27.4231 28.0743 28.0553 29.6545C28.3721 30.4467 28.7307 31.0375 29.0905 31.4179C29.4488 31.7968 29.756 31.9167 29.9987 31.9167C30.2415 31.9167 30.5486 31.7968 30.9069 31.4179C31.2667 31.0375 31.6253 30.4467 31.9422 29.6545C32.5743 28.0743 32.982 25.8397 32.982 23.3333C32.982 20.8269 32.5743 18.5924 31.9422 17.0122C31.6253 16.22 31.2667 15.6292 30.9069 15.2488C30.5486 14.8699 30.2415 14.75 29.9987 14.75C29.756 14.75 29.4488 14.8699 29.0905 15.2488C28.7307 15.6292 28.3721 16.22 28.0553 17.0122Z" fill="white"/>
<path fill-rule="evenodd" clip-rule="evenodd" d="M26.1407 27.0822C27.3643 26.5754 28.676 26.3153 30.0004 26.3169C31.3248 26.3153 32.6364 26.5754 33.86 27.0822C35.0839 27.5892 36.1955 28.333 37.131 29.271C37.4235 29.5643 37.4229 30.0392 37.1296 30.3317C36.8363 30.6242 36.3614 30.6235 36.0689 30.3303C35.273 29.5322 34.3272 28.8994 33.286 28.4681C32.2447 28.0367 31.1284 27.8154 30.0013 27.8169H29.9994C28.8723 27.8154 27.756 28.0367 26.7148 28.4681C25.6735 28.8994 24.7277 29.5322 23.9318 30.3303C23.6393 30.6235 23.1644 30.6242 22.8711 30.3317C22.5778 30.0392 22.5772 29.5643 22.8697 29.271C23.8052 28.333 24.9168 27.5892 26.1407 27.0822Z" fill="white"/>
<path fill-rule="evenodd" clip-rule="evenodd" d="M33.86 19.4685C32.6364 19.9754 31.3248 20.2355 30.0004 20.2339C28.676 20.2355 27.3643 19.9754 26.1407 19.4685C24.9169 18.9616 23.8052 18.2177 22.8697 17.2798C22.5772 16.9865 22.5779 16.5116 22.8711 16.2191C23.1644 15.9266 23.6393 15.9272 23.9318 16.2205C24.7277 17.0185 25.6735 17.6514 26.7148 18.0827C27.7561 18.514 28.8723 18.7353 29.9994 18.7339L30.0013 18.7339C31.1284 18.7353 32.2447 18.514 33.286 18.0827C34.3273 17.6514 35.273 17.0185 36.0689 16.2205C36.3615 15.9272 36.8363 15.9266 37.1296 16.2191C37.4229 16.5116 37.4235 16.9865 37.131 17.2798C36.1955 18.2177 35.0839 18.9616 33.86 19.4685Z" fill="white"/>
<rect opacity="0.7" x="19.333" y="36.3333" width="21.3333" height="4" rx="1" fill="white"/>
<rect opacity="0.5" x="19.3334" y="42" width="21.3333" height="2.66667" rx="1" fill="white"/>
</svg>
