<svg width="18" height="18" viewBox="0 0 18 18" fill="none" xmlns="http://www.w3.org/2000/svg">
<path d="M9 18C11.3869 18 13.6761 17.0518 15.364 15.364C17.0518 13.6761 18 11.3869 18 9C18 6.61305 17.0518 4.32387 15.364 2.63604C13.6761 0.948212 11.3869 0 9 0C6.61305 0 4.32387 0.948212 2.63604 2.63604C0.948212 4.32387 0 6.61305 0 9C0 11.3869 0.948212 13.6761 2.63604 15.364C4.32387 17.0518 6.61305 18 9 18V18ZM10.0463 7.4115L8.92125 12.7046C8.8425 13.0871 8.95388 13.3043 9.26325 13.3043C9.4815 13.3043 9.81113 13.2255 10.035 13.0275L9.936 13.4955C9.61312 13.8848 8.901 14.1682 8.28788 14.1682C7.497 14.1682 7.16063 13.6935 7.37888 12.6844L8.20912 8.78288C8.28112 8.45325 8.21588 8.334 7.88625 8.25412L7.37888 8.163L7.47112 7.73438L10.0474 7.4115H10.0463ZM9 6.1875C8.70163 6.1875 8.41548 6.06897 8.20451 5.85799C7.99353 5.64702 7.875 5.36087 7.875 5.0625C7.875 4.76413 7.99353 4.47798 8.20451 4.267C8.41548 4.05603 8.70163 3.9375 9 3.9375C9.29837 3.9375 9.58452 4.05603 9.79549 4.267C10.0065 4.47798 10.125 4.76413 10.125 5.0625C10.125 5.36087 10.0065 5.64702 9.79549 5.85799C9.58452 6.06897 9.29837 6.1875 9 6.1875V6.1875Z" fill="#333333"/>
</svg>
