<svg width="32" height="32" viewBox="0 0 32 32" fill="none" xmlns="http://www.w3.org/2000/svg">
<rect opacity="0.1" width="32" height="32" rx="16" fill="#F26A6A"/>
<path d="M22.2929 12.1831C22.6834 11.7927 22.6836 11.1596 22.2933 10.769L21.2327 9.70774C20.8422 9.31693 20.2087 9.31688 19.8181 9.70763L16.7072 12.8197C16.3167 13.2104 15.6833 13.2104 15.2928 12.8197L12.1819 9.70763C11.7913 9.31688 11.1578 9.31693 10.7673 9.70774L9.70674 10.769C9.3164 11.1596 9.31657 11.7927 9.70713 12.1831L12.8181 15.2929C13.2088 15.6834 13.2088 16.3167 12.8183 16.7072L9.70711 19.8184C9.31658 20.2089 9.31658 20.8421 9.70711 21.2326L10.7674 22.2929C11.1579 22.6834 11.7911 22.6834 12.1816 22.2929L15.2929 19.1816C15.6834 18.7911 16.3166 18.7911 16.7071 19.1816L19.8184 22.2929C20.2089 22.6834 20.8421 22.6834 21.2326 22.2929L22.2929 21.2326C22.6834 20.8421 22.6834 20.2089 22.2929 19.8184L19.1817 16.7072C18.7912 16.3167 18.7912 15.6834 19.1819 15.2929L22.2929 12.1831Z" fill="#F26A6A"/>
</svg>
