<svg width="69" height="67" viewBox="0 0 69 67" fill="none" xmlns="http://www.w3.org/2000/svg">
<rect width="60" height="60" rx="5" fill="#1348E4" fill-opacity="0.05"/>
<rect x="0.5" y="0.5" width="59" height="59" rx="4.5" stroke="#1348E4" stroke-opacity="0.4" stroke-dasharray="5 5"/>
<rect x="49" y="47" width="20" height="20" rx="10" fill="#839FF1"/>
<path d="M60.184 62V51.616H58.28C58.072 52.704 57.016 53.552 55.496 53.568V55.056H57.992V62H60.184Z" fill="white"/>
<rect opacity="0.5" x="10" y="46" width="32" height="40" rx="3" transform="rotate(-90 10 46)" fill="#1348E4"/>
<rect opacity="0.7" x="36.6666" y="18" width="9.33333" height="9.33333" rx="4" fill="white"/>
<rect opacity="0.5" x="14" y="39.3333" width="32" height="2.66667" rx="1" fill="white"/>
<path d="M31.0752 33.7534L30.8347 34.0426C30.8306 34.0468 30.8266 34.0511 30.8224 34.0554C30.7961 34.083 30.7669 34.1137 30.7313 34.1519L30.7293 34.154C30.5257 34.3749 30.319 34.5835 30.1044 34.7787C30.0617 34.8172 30.0212 34.8517 29.9743 34.8916C29.9521 34.9104 29.9285 34.9305 29.9026 34.9528L29.902 34.9533C29.6928 35.1336 29.4781 35.3046 29.2579 35.4661L29.0962 35.5798C27.4115 36.7643 25.4018 37.4001 23.3417 37.4001C21.2816 37.4001 19.2718 36.7643 17.5872 35.5798L17.4143 35.4582C17.1988 35.3005 16.9883 35.1317 16.7814 34.9533L16.7808 34.9528C16.7519 34.928 16.7267 34.9066 16.7036 34.887C16.6585 34.8489 16.6213 34.8174 16.5806 34.7802L16.5792 34.7789C16.3652 34.585 16.1585 34.3758 15.954 34.154L15.952 34.1519C15.9148 34.1119 15.8851 34.0808 15.8588 34.0534C15.8581 34.0526 15.8573 34.0518 15.8565 34.051L15.6049 33.7513C14.095 31.953 13.2672 29.681 13.2666 27.3339L13.2666 27.3335C13.2652 25.7183 13.6532 24.1264 14.3977 22.6927C15.1422 21.2589 16.2214 20.0254 17.544 19.0964C18.8667 18.1674 20.3938 17.5704 21.9963 17.3559C23.5987 17.1413 25.2293 17.3156 26.7501 17.8638C28.2709 18.4121 29.6371 19.3183 30.7332 20.5057C31.8293 21.6931 32.6229 23.1267 33.0472 24.6853C33.4714 26.244 33.5137 27.8817 33.1704 29.4601C32.8272 31.0385 32.1085 32.5111 31.0752 33.7534ZM21.0536 29.7813H21.0533C19.8945 29.7819 18.7825 30.2383 17.9578 31.0519C17.1331 31.8656 16.662 32.971 16.6467 34.1292L17.2467 34.1371L16.8452 34.583C18.6276 36.1878 20.9418 37.0759 23.3409 37.0759C25.7401 37.0759 28.0542 36.1878 29.8367 34.583L30.0387 34.401L30.0351 34.1292C30.0198 32.971 29.5488 31.8656 28.7241 31.0519C27.8994 30.2383 26.7873 29.7819 25.6286 29.7813H25.6283H21.0536ZM25.5802 21.3182C24.9174 20.8756 24.1381 20.6394 23.3409 20.6394C22.272 20.6394 21.2467 21.0637 20.4907 21.8191C19.7347 22.5745 19.3099 23.5991 19.3099 24.6676C19.3099 25.4644 19.5464 26.2433 19.9894 26.9058C20.4324 27.5682 21.062 28.0844 21.7985 28.3893C22.535 28.6941 23.3454 28.7738 24.1272 28.6184C24.9091 28.463 25.6273 28.0795 26.1911 27.5162C26.7549 26.9528 27.1389 26.2351 27.2945 25.4536C27.45 24.6721 27.3702 23.862 27.065 23.1259C26.7599 22.3898 26.2431 21.7607 25.5802 21.3182Z" stroke="white" stroke-width="1.2"/>
</svg>
