<svg width="22" height="16" viewBox="0 0 22 16" fill="none" xmlns="http://www.w3.org/2000/svg">
<path fill-rule="evenodd" clip-rule="evenodd" d="M0.790811 0.781048C0.284463 1.28115 0 1.95942 0 2.66667V13.3333C0 14.0406 0.284463 14.7189 0.790811 15.219C1.29716 15.719 1.98392 16 2.7 16H18.9C19.6161 16 20.3028 15.719 20.8092 15.219C21.3155 14.7189 21.6 14.0406 21.6 13.3333V5.33333C21.6 4.62609 21.3155 3.94781 20.8092 3.44772C20.3028 2.94762 19.6161 2.66667 18.9 2.66667H12.15L9.45 0H2.7C1.98392 0 1.29716 0.280951 0.790811 0.781048ZM11.8889 5.68869C11.8889 5.19777 11.4909 4.7998 11 4.7998C10.5091 4.7998 10.1111 5.19777 10.1111 5.68869V9.68869L8.51743 8.17127C8.1703 7.82413 7.60748 7.82413 7.26035 8.17127C6.91322 8.5184 6.91322 9.08121 7.26035 9.42834L10.3715 12.5395C10.7186 12.8866 11.2814 12.8866 11.6285 12.5395L14.7397 9.42834C15.0868 9.08121 15.0868 8.5184 14.7397 8.17127C14.3925 7.82413 13.8297 7.82413 13.4826 8.17127L11.8889 9.68869V5.68869Z" fill="white"/>
</svg>
