<svg width="18" height="24" viewBox="0 0 18 24" fill="none" xmlns="http://www.w3.org/2000/svg">
<path d="M14.3643 11.3737C15.6642 10.709 16.4914 9.52725 16.2993 7.56272C16.0482 4.87439 13.8404 3.97336 10.9157 3.7223V0H8.641V3.61889C8.05015 3.61889 7.44452 3.63366 6.83895 3.64842V0H4.5642V3.7223C3.72786 3.74756 2.7538 3.73523 0 3.7223V6.1447C1.79596 6.11292 2.73829 5.99752 2.95419 7.14909V17.3411C2.81708 18.2548 2.08588 18.1232 0.457873 18.0944L4.68826e-05 20.7975C4.14758 20.7975 4.56425 20.8123 4.56425 20.8123V24H6.83899V20.8566C7.45933 20.8713 8.06496 20.8713 8.64105 20.8713V24H10.9158V20.8123C14.7267 20.6055 17.2742 19.6454 17.614 16.056C17.8798 13.1757 16.5208 11.8906 14.3643 11.3737ZM6.88329 6.30717C8.16836 6.30717 12.1861 5.90841 12.1861 8.58192C12.1861 11.1373 8.16841 10.8419 6.88329 10.8419V6.30717ZM6.88329 18.1092V13.1166C8.41947 13.1166 13.1236 12.6883 13.1236 15.6129C13.1235 18.4342 8.41947 18.1092 6.88329 18.1092Z" fill="#333333"/>
</svg>
