<svg width="24" height="26" viewBox="0 0 24 26" fill="none" xmlns="http://www.w3.org/2000/svg">
<path opacity="0.2" d="M15.3 16.3H19.0406C19.4406 16.3 19.8022 16.5384 19.9597 16.9061L22.4026 22.6061C22.6854 23.2659 22.2014 24 21.4835 24H2.51654C1.79862 24 1.31459 23.2659 1.59739 22.6061L4.04025 16.9061C4.19783 16.5384 4.55937 16.3 4.9594 16.3H8.7M13.1 8.6C13.1 8.89174 12.9841 9.17153 12.7778 9.37782C12.5715 9.58411 12.2917 9.7 12 9.7C11.7083 9.7 11.4285 9.58411 11.2222 9.37782C11.0159 9.17153 10.9 8.89174 10.9 8.6C10.9 8.30826 11.0159 8.02847 11.2222 7.82218C11.4285 7.61589 11.7083 7.5 12 7.5C12.2917 7.5 12.5715 7.61589 12.7778 7.82218C12.9841 8.02847 13.1 8.30826 13.1 8.6ZM5.4 8.6C5.4 13.0583 9.73664 17.5166 11.3794 19.0455C11.7328 19.3743 12.2672 19.3743 12.6206 19.0455C14.2634 17.5166 18.6 13.0583 18.6 8.6C18.6 4.8413 15.6454 2 12 2C8.3546 2 5.4 4.8413 5.4 8.6Z" stroke="black" stroke-width="2.5"/>
</svg>
