<svg width="60" height="60" viewBox="0 0 60 60" fill="none" xmlns="http://www.w3.org/2000/svg">
<rect width="60" height="60" rx="5" fill="#1348E4" fill-opacity="0.05"/>
<rect x="0.5" y="0.5" width="59" height="59" rx="4.5" stroke="#1348E4" stroke-opacity="0.4" stroke-dasharray="5 5"/>
<rect opacity="0.5" x="15" y="10" width="32" height="40" rx="3" fill="#1348E4"/>
<path d="M40.3568 28.5664L38.8976 24.1877C38.6859 23.5504 38.2788 22.9959 37.734 22.6032C37.1892 22.2105 36.5345 21.9994 35.8629 22H26.1371C25.4655 21.9994 24.8108 22.2105 24.266 22.6032C23.7212 22.9959 23.3141 23.5504 23.1024 24.1877L21.6432 28.5664C21.2556 28.729 20.9246 29.0024 20.6916 29.3523C20.4586 29.7022 20.334 30.113 20.3333 30.5333V35.8667C20.3333 36.6699 20.7845 37.3621 21.4416 37.7259C21.4277 37.7963 21.4 37.8603 21.4 37.9339V40.1333C21.4 40.4162 21.5124 40.6875 21.7124 40.8876C21.9125 41.0876 22.1838 41.2 22.4667 41.2H23.5333C23.8162 41.2 24.0876 41.0876 24.2876 40.8876C24.4876 40.6875 24.6 40.4162 24.6 40.1333V38H37.4V40.1333C37.4 40.4162 37.5124 40.6875 37.7124 40.8876C37.9125 41.0876 38.1838 41.2 38.4667 41.2H39.5333C39.8162 41.2 40.0876 41.0876 40.2876 40.8876C40.4876 40.6875 40.6 40.4162 40.6 40.1333V37.9339C40.6 37.8603 40.5723 37.7952 40.5584 37.7259C40.8927 37.5436 41.1719 37.2749 41.3669 36.9479C41.5618 36.6208 41.6654 36.2474 41.6667 35.8667V30.5333C41.6667 29.6491 41.1248 28.8896 40.3568 28.5664ZM22.4667 35.8667V30.5333H39.5333L39.5355 35.8667H22.4667ZM26.1371 24.1333H35.8619C36.3216 24.1333 36.7291 24.4256 36.8741 24.8629L38.0539 28.4H23.9461L25.1248 24.8629C25.1956 24.6504 25.3314 24.4656 25.5131 24.3347C25.6948 24.2037 25.9131 24.1333 26.1371 24.1333V24.1333Z" fill="white"/>
<path d="M25.1303 34.8001C26.0139 34.8001 26.7303 34.0838 26.7303 33.2001C26.7303 32.3164 26.0139 31.6001 25.1303 31.6001C24.2466 31.6001 23.5303 32.3164 23.5303 33.2001C23.5303 34.0838 24.2466 34.8001 25.1303 34.8001Z" fill="white"/>
<path d="M36.8686 34.8001C37.7522 34.8001 38.4686 34.0838 38.4686 33.2001C38.4686 32.3164 37.7522 31.6001 36.8686 31.6001C35.9849 31.6001 35.2686 32.3164 35.2686 33.2001C35.2686 34.0838 35.9849 34.8001 36.8686 34.8001Z" fill="white"/>
<rect opacity="0.7" x="24.3333" y="14" width="13.3333" height="4" rx="1" fill="white"/>
<rect opacity="0.5" x="20.3333" y="43.3333" width="12" height="2.66667" rx="1" fill="white"/>
<rect opacity="0.5" x="35" y="43.3333" width="4" height="2.66667" rx="1" fill="white"/>
</svg>
