<svg width="18" height="15" viewBox="0 0 18 15" fill="none" xmlns="http://www.w3.org/2000/svg">
<path d="M15.2317 13.7735L17.9475 1.33932C18.0583 0.813006 17.9937 0.436214 17.7535 0.208943C17.5133 -0.0183283 17.1962 -0.0601941 16.8021 0.0833457L0.839853 6.05819C0.482674 6.18977 0.239423 6.33929 0.1101 6.50675C-0.0192238 6.67422 -0.0346194 6.83271 0.0639128 6.98223C0.162445 7.13175 0.359509 7.24838 0.655105 7.33211L4.73803 8.57014L14.2156 2.77472C14.4742 2.60726 14.6713 2.57137 14.8068 2.66706C14.893 2.72687 14.8684 2.81658 14.7329 2.9362L7.06585 9.66463L6.77025 13.7555C7.05353 13.7555 7.33066 13.6239 7.60162 13.3608L9.5969 11.4948L13.7352 14.4553C14.5235 14.8859 15.0223 14.6586 15.2317 13.7735Z" fill="white"/>
</svg>
