<svg width="15" height="18" viewBox="0 0 15 18" fill="none" xmlns="http://www.w3.org/2000/svg">
<path d="M7.74916 0H10.7123C10.7729 7.62452e-05 10.8327 0.0141602 10.8869 0.0411522C10.9412 0.0681442 10.9885 0.107314 11.0251 0.155604C11.0618 0.203894 11.0868 0.259997 11.0981 0.319534C11.1095 0.37907 11.107 0.440429 11.0907 0.498821L8.76286 8.4318L12.7474 6.86441L12.2795 8.45262L8.27321 9.99478L6.84211 14.827H14.4976C14.5583 14.8274 14.618 14.8417 14.6722 14.869C14.7264 14.8963 14.7736 14.9357 14.81 14.9842C14.8464 15.0328 14.8711 15.0891 14.8822 15.1487C14.8932 15.2084 14.8903 15.2698 14.8737 15.3282L14.2063 17.6216C14.1744 17.7307 14.108 17.8265 14.017 17.8947C13.926 17.9629 13.8155 17.9999 13.7018 18H2.00985L3.98564 11.3238L0 12.8889L0.48162 11.3282L4.47185 9.76314L7.2492 0.383003C7.27965 0.273319 7.34506 0.176568 7.43551 0.107443C7.52595 0.0383176 7.63648 0.000593771 7.75031 0H7.74916Z" fill="#1A368B"/>
</svg>
