<svg width="24" height="30" viewBox="0 0 24 30" fill="none" xmlns="http://www.w3.org/2000/svg">
<rect width="24" height="30" rx="3" fill="#1348E4"/>
<path d="M19.0176 13.9248L17.9232 10.6408C17.7644 10.1628 17.4591 9.74696 17.0505 9.45241C16.6419 9.15785 16.1509 8.99955 15.6472 9H8.3528C7.84911 8.99955 7.35809 9.15785 6.94951 9.45241C6.54092 9.74696 6.23556 10.1628 6.0768 10.6408L4.9824 13.9248C4.69169 14.0468 4.44342 14.2518 4.26868 14.5142C4.09393 14.7766 4.00047 15.0847 4 15.4V19.4C4 20.0024 4.3384 20.5216 4.8312 20.7944C4.8208 20.8472 4.8 20.8952 4.8 20.9504V22.6C4.8 22.8122 4.88429 23.0157 5.03431 23.1657C5.18434 23.3157 5.38783 23.4 5.6 23.4H6.4C6.61217 23.4 6.81566 23.3157 6.96569 23.1657C7.11571 23.0157 7.2 22.8122 7.2 22.6V21H16.8V22.6C16.8 22.8122 16.8843 23.0157 17.0343 23.1657C17.1843 23.3157 17.3878 23.4 17.6 23.4H18.4C18.6122 23.4 18.8157 23.3157 18.9657 23.1657C19.1157 23.0157 19.2 22.8122 19.2 22.6V20.9504C19.2 20.8952 19.1792 20.8464 19.1688 20.7944C19.4195 20.6577 19.6289 20.4562 19.7751 20.2109C19.9214 19.9656 19.999 19.6856 20 19.4V15.4C20 14.7368 19.5936 14.1672 19.0176 13.9248ZM5.6 19.4V15.4H18.4L18.4016 19.4H5.6ZM8.3528 10.6H15.6464C15.9912 10.6 16.2968 10.8192 16.4056 11.1472L17.2904 13.8H6.7096L7.5936 11.1472C7.64668 10.9878 7.74857 10.8492 7.88484 10.751C8.02111 10.6528 8.18483 10.6 8.3528 10.6Z" fill="white"/>
<path d="M7.5977 18.6C8.26045 18.6 8.7977 18.0627 8.7977 17.4C8.7977 16.7373 8.26045 16.2 7.5977 16.2C6.93496 16.2 6.39771 16.7373 6.39771 17.4C6.39771 18.0627 6.93496 18.6 7.5977 18.6Z" fill="white"/>
<path d="M16.4007 18.6C17.0634 18.6 17.6007 18.0627 17.6007 17.4C17.6007 16.7373 17.0634 16.2 16.4007 16.2C15.7379 16.2 15.2007 16.7373 15.2007 17.4C15.2007 18.0627 15.7379 18.6 16.4007 18.6Z" fill="white"/>
<rect opacity="0.7" x="7" y="3" width="10" height="3" rx="1" fill="white"/>
<rect opacity="0.5" x="4" y="25" width="9" height="2" rx="1" fill="white"/>
<rect opacity="0.5" x="15" y="25" width="3" height="2" rx="1" fill="white"/>
</svg>
