<svg width="19" height="18" viewBox="0 0 19 18" fill="none" xmlns="http://www.w3.org/2000/svg">
<g opacity="0.7">
<path fill-rule="evenodd" clip-rule="evenodd" d="M11 0.999999C11 1.26522 11.1054 1.51957 11.2929 1.70711C11.4804 1.89464 11.7348 2 12 2L17 2L17 16L12 16C11.7348 16 11.4804 16.1054 11.2929 16.2929C11.1054 16.4804 11 16.7348 11 17C11 17.2652 11.1054 17.5196 11.2929 17.7071C11.4804 17.8946 11.7348 18 12 18L17 18C17.5304 18 18.0391 17.7893 18.4142 17.4142C18.7893 17.0391 19 16.5304 19 16L19 2C19 1.46957 18.7893 0.960859 18.4142 0.585787C18.0391 0.210714 17.5304 -1.28474e-07 17 -1.74846e-07L12 -6.11959e-07C11.7348 -6.35145e-07 11.4804 0.105356 11.2929 0.292892C11.1054 0.480428 11 0.734782 11 0.999999Z" fill="black"/>
<path d="M0.286 8.30004C0.103083 8.48596 0.000396236 8.73622 4.3845e-07 8.99704L4.37926e-07 9.00304C0.000523028 9.26726 0.105906 9.52047 0.293 9.70704L4.293 13.707C4.38525 13.8026 4.49559 13.8787 4.6176 13.9311C4.7396 13.9836 4.87082 14.0111 5.0036 14.0123C5.13638 14.0134 5.26806 13.9881 5.39095 13.9379C5.51385 13.8876 5.6255 13.8133 5.71939 13.7194C5.81329 13.6255 5.88754 13.5139 5.93782 13.391C5.9881 13.2681 6.0134 13.1364 6.01225 13.0036C6.0111 12.8709 5.98351 12.7396 5.9311 12.6176C5.87869 12.4956 5.80251 12.3853 5.707 12.293L3.414 10L13 10C13.2652 10 13.5196 9.89468 13.7071 9.70715C13.8946 9.51961 14 9.26526 14 9.00004C14 8.73482 13.8946 8.48047 13.7071 8.29293C13.5196 8.1054 13.2652 8.00004 13 8.00004L3.414 8.00004L5.707 5.70704C5.88916 5.51844 5.98995 5.26584 5.98768 5.00364C5.9854 4.74144 5.88023 4.49063 5.69482 4.30522C5.50941 4.11981 5.2586 4.01464 4.9964 4.01237C4.73421 4.01009 4.4816 4.11088 4.293 4.29304L0.293 8.29304L0.286 8.30004Z" fill="black"/>
</g>
</svg>
