<svg width="14" height="24" viewBox="0 0 14 24" fill="none" xmlns="http://www.w3.org/2000/svg">
<path d="M5.14286 6.85714H12C12.4547 6.85714 12.8907 6.67653 13.2122 6.35504C13.5337 6.03355 13.7143 5.59751 13.7143 5.14286C13.7143 4.6882 13.5337 4.25217 13.2122 3.93067C12.8907 3.60918 12.4547 3.42857 12 3.42857H8.57143V1.71429C8.57143 1.25963 8.39082 0.823594 8.06933 0.502103C7.74783 0.180612 7.3118 0 6.85714 0C6.40249 0 5.96645 0.180612 5.64496 0.502103C5.32347 0.823594 5.14286 1.25963 5.14286 1.71429V3.42857C3.77889 3.42857 2.47078 3.97041 1.50631 4.93488C0.541835 5.89935 0 7.20746 0 8.57143C0 9.9354 0.541835 11.2435 1.50631 12.208C2.47078 13.1725 3.77889 13.7143 5.14286 13.7143H8.57143C9.02609 13.7143 9.46212 13.8949 9.78361 14.2164C10.1051 14.5379 10.2857 14.9739 10.2857 15.4286C10.2857 15.8832 10.1051 16.3193 9.78361 16.6408C9.46212 16.9622 9.02609 17.1429 8.57143 17.1429H1.71429C1.25963 17.1429 0.823594 17.3235 0.502103 17.645C0.180612 17.9665 0 18.4025 0 18.8571C0 19.3118 0.180612 19.7478 0.502103 20.0693C0.823594 20.3908 1.25963 20.5714 1.71429 20.5714H5.14286V22.2857C5.14286 22.7404 5.32347 23.1764 5.64496 23.4979C5.96645 23.8194 6.40249 24 6.85714 24C7.3118 24 7.74783 23.8194 8.06933 23.4979C8.39082 23.1764 8.57143 22.7404 8.57143 22.2857V20.5714C9.9354 20.5714 11.2435 20.0296 12.208 19.0651C13.1725 18.1006 13.7143 16.7925 13.7143 15.4286C13.7143 14.0646 13.1725 12.7565 12.208 11.792C11.2435 10.8275 9.9354 10.2857 8.57143 10.2857H5.14286C4.6882 10.2857 4.25217 10.1051 3.93067 9.78361C3.60918 9.46212 3.42857 9.02609 3.42857 8.57143C3.42857 8.11677 3.60918 7.68074 3.93067 7.35925C4.25217 7.03776 4.6882 6.85714 5.14286 6.85714Z" fill="black"/>
</svg>
