<svg width="30" height="24" viewBox="0 0 30 24" fill="none" xmlns="http://www.w3.org/2000/svg">
<rect y="24" width="24" height="30" rx="3" transform="rotate(-90 0 24)" fill="#1348E4"/>
<rect opacity="0.7" x="20" y="3" width="7" height="7" rx="3.5" fill="white"/>
<rect opacity="0.5" x="3" y="19" width="24" height="2" rx="1" fill="white"/>
<path d="M15.6911 14.7191L15.514 14.932C15.5129 14.9331 15.5118 14.9343 15.5106 14.9355C15.4909 14.9562 15.4683 14.9799 15.4387 15.0116L15.4368 15.0138C15.3515 15.1062 15.2658 15.1955 15.1788 15.2816L15.1764 15.0948C15.1644 14.1868 14.795 13.32 14.1484 12.6821C13.5018 12.0442 12.63 11.6864 11.7215 11.6859H11.7212H8.29021H8.2899C7.38145 11.6864 6.50961 12.0442 5.86302 12.6821C5.21642 13.32 4.84709 14.1868 4.83508 15.0948L4.83262 15.2807C4.74634 15.1952 4.66097 15.1061 4.57584 15.0138L4.57387 15.0116C4.54467 14.9803 4.52265 14.9573 4.50399 14.9378L4.31855 14.7169C3.2088 13.3953 2.6004 11.7254 2.6 10.0003L2.6 9.99991C2.59896 8.81262 2.88413 7.64251 3.43141 6.58858C3.97869 5.53465 4.772 4.62787 5.74426 3.94499C6.71653 3.26211 7.83914 2.82323 9.01713 2.66551C10.1951 2.50779 11.3938 2.63588 12.5117 3.03893C13.6297 3.44197 14.634 4.10811 15.4397 4.98095C16.2454 5.85378 16.8288 6.90763 17.1407 8.05333C17.4525 9.19904 17.4836 10.4029 17.2313 11.5632C16.979 12.7234 16.4507 13.8059 15.6911 14.7191ZM3.97956 15.2447L3.97456 15.249L4.42684 14.8548C4.42663 14.8545 4.42642 14.8543 4.42621 14.854L3.97956 15.2447ZM11.7685 5.36381C11.2467 5.01542 10.6332 4.8295 10.0057 4.8295C9.16428 4.8295 8.3572 5.16348 7.76206 5.75813C7.1669 6.3528 6.83246 7.15945 6.83246 8.00065C6.83246 8.62796 7.01863 9.24113 7.36737 9.76264C7.71611 10.2841 8.21174 10.6905 8.79153 10.9305C9.3713 11.1704 10.0092 11.2332 10.6247 11.1109C11.2402 10.9886 11.8056 10.6866 12.2494 10.2432C12.6932 9.79971 12.9955 9.23464 13.118 8.61941C13.2405 8.00416 13.1776 7.36646 12.9374 6.78694C12.6971 6.20743 12.2903 5.7122 11.7685 5.36381Z" stroke="white" stroke-width="1.2"/>
</svg>
