<svg width="24" height="30" viewBox="0 0 24 30" fill="none" xmlns="http://www.w3.org/2000/svg">
<rect width="24" height="30" rx="3" fill="#1348E4"/>
<path fill-rule="evenodd" clip-rule="evenodd" d="M4.00049 9.99987C4.00049 5.58155 7.58204 2 12.0004 2C16.4187 2 20.0002 5.58155 20.0002 9.99987C20.0002 14.4182 16.4187 17.9997 12.0004 17.9997C7.58204 17.9997 4.00049 14.4182 4.00049 9.99987ZM12.0004 3.19006C8.23929 3.19006 5.19055 6.2388 5.19055 9.99987C5.19055 13.7609 8.23929 16.8097 12.0004 16.8097C15.7614 16.8097 18.8102 13.7609 18.8102 9.99987C18.8102 6.2388 15.7614 3.19006 12.0004 3.19006Z" fill="white"/>
<path fill-rule="evenodd" clip-rule="evenodd" d="M4 9.99991C4 9.67129 4.2664 9.40488 4.59503 9.40488H19.4047C19.7333 9.40488 19.9997 9.67129 19.9997 9.99991C19.9997 10.3285 19.7333 10.5949 19.4047 10.5949H4.59503C4.2664 10.5949 4 10.3285 4 9.99991Z" fill="white"/>
<path fill-rule="evenodd" clip-rule="evenodd" d="M10.4137 2.76807C10.8381 2.31926 11.3736 2 11.9989 2C12.6241 2 13.1596 2.31926 13.5841 2.76807C14.0073 3.21563 14.3611 3.83133 14.6457 4.54282C15.2162 5.9691 15.5558 7.8987 15.5558 9.99987C15.5558 12.101 15.2162 14.0306 14.6457 15.4569C14.3611 16.1684 14.0073 16.7841 13.5841 17.2317C13.1596 17.6805 12.6241 17.9997 11.9989 17.9997C11.3736 17.9997 10.8381 17.6805 10.4137 17.2317C9.9904 16.7841 9.63663 16.1684 9.35203 15.4569C8.78149 14.0306 8.44189 12.101 8.44189 9.99987C8.44189 7.8987 8.78149 5.9691 9.35203 4.54282C9.63663 3.83133 9.9904 3.21563 10.4137 2.76807ZM10.457 4.98481C9.95546 6.23853 9.63196 8.01135 9.63196 9.99987C9.63196 11.9884 9.95546 13.7612 10.457 15.0149C10.7084 15.6434 10.9929 16.1121 11.2783 16.414C11.5626 16.7145 11.8063 16.8097 11.9989 16.8097C12.1915 16.8097 12.4352 16.7145 12.7194 16.414C13.0049 16.1121 13.2893 15.6434 13.5408 15.0149C14.0423 13.7612 14.3658 11.9884 14.3658 9.99987C14.3658 8.01135 14.0423 6.23853 13.5408 4.98481C13.2893 4.3563 13.0049 3.88761 12.7194 3.58578C12.4352 3.2852 12.1915 3.19006 11.9989 3.19006C11.8063 3.19006 11.5626 3.2852 11.2783 3.58578C10.9929 3.88761 10.7084 4.3563 10.457 4.98481Z" fill="white"/>
<path fill-rule="evenodd" clip-rule="evenodd" d="M8.93877 12.9741C9.90953 12.572 10.9502 12.3656 12.0009 12.3669C13.0517 12.3656 14.0923 12.572 15.0631 12.9741C16.0341 13.3763 16.916 13.9664 17.6582 14.7106C17.8902 14.9433 17.8898 15.32 17.6571 15.5521C17.4244 15.7842 17.0476 15.7837 16.8156 15.551C16.1841 14.9178 15.4338 14.4158 14.6076 14.0735C13.7815 13.7313 12.8959 13.5558 12.0017 13.5569H12.0001C11.1059 13.5558 10.2203 13.7313 9.3942 14.0735C8.56808 14.4158 7.81772 14.9178 7.18626 15.551C6.95419 15.7837 6.57744 15.7842 6.34476 15.5521C6.11208 15.32 6.11158 14.9433 6.34365 14.7106C7.08584 13.9664 7.96778 13.3763 8.93877 12.9741Z" fill="white"/>
<path fill-rule="evenodd" clip-rule="evenodd" d="M15.0622 6.93354C14.0914 7.33566 13.0508 7.54201 12.0001 7.54075C10.9493 7.54201 9.90868 7.33566 8.93792 6.93354C7.96692 6.53133 7.08499 5.94119 6.34279 5.19704C6.11073 4.96435 6.11122 4.5876 6.3439 4.35553C6.57659 4.12347 6.95334 4.12396 7.18541 4.35664C7.81687 4.98977 8.56722 5.49187 9.39335 5.83407C10.2195 6.17628 11.1051 6.35184 11.9993 6.35069L12.0008 6.35069C12.895 6.35184 13.7806 6.17628 14.6068 5.83407C15.4329 5.49187 16.1833 4.98977 16.8147 4.35664C17.0468 4.12396 17.4235 4.12347 17.6562 4.35553C17.8889 4.5876 17.8894 4.96435 17.6573 5.19704C16.9151 5.94119 16.0332 6.53133 15.0622 6.93354Z" fill="white"/>
<rect opacity="0.7" x="4" y="20" width="16" height="3" rx="1" fill="white"/>
<rect opacity="0.5" x="4" y="24" width="16" height="2" rx="1" fill="white"/>
</svg>
