<svg width="32" height="32" viewBox="0 0 32 32" fill="none" xmlns="http://www.w3.org/2000/svg">
<rect opacity="0.1" width="32" height="32" rx="16" fill="#FFC56D"/>
<path d="M26 16C26 13.4409 25.0242 10.8813 23.0716 8.9288C19.1664 5.02373 12.834 5.02373 8.92889 8.9288C5.0237 12.8338 5.0237 19.1661 8.92889 23.0712C12.834 26.9763 19.1665 26.9763 23.0716 23.0712C25.0242 21.1187 26 18.5591 26 16ZM23.3878 16C23.3878 17.8906 22.6673 19.7818 21.2247 21.2244C18.3396 24.1094 13.6609 24.1094 10.7758 21.2244C7.89064 18.3393 7.89064 13.6607 10.7758 10.7756C13.6609 7.89053 18.3396 7.89055 21.2247 10.7756C22.6673 12.2182 23.3878 14.1094 23.3878 16ZM21.7093 15.9771C21.7093 15.4248 21.2616 14.9771 20.7093 14.9771L18.0378 14.9771C17.4855 14.9771 17.0378 14.5294 17.0378 13.9771L17.0378 13.3881C17.0378 12.8358 16.5901 12.3881 16.0378 12.3881L15.4805 12.3881C14.9282 12.3881 14.4805 12.8358 14.4805 13.3881L14.4805 16.5343C14.4805 17.0866 14.9282 17.5343 15.4805 17.5343L20.7093 17.5343C21.2616 17.5343 21.7093 17.0866 21.7093 16.5343L21.7093 15.9771Z" fill="#FFC56D"/>
</svg>
