<svg width="21" height="17" viewBox="0 0 21 17" fill="none" xmlns="http://www.w3.org/2000/svg">
<path d="M21 1.95225C20.2277 2.27316 19.3873 2.50413 18.5217 2.59408C19.4204 2.07973 20.0934 1.26714 20.4145 0.30877C19.5711 0.792062 18.6473 1.13095 17.6838 1.31042C17.2811 0.895721 16.7941 0.565356 16.2531 0.339907C15.7121 0.114458 15.1287 -0.00124424 14.5392 1.00904e-05C12.1543 1.00904e-05 10.2363 1.86229 10.2363 4.1476C10.2363 4.46852 10.2767 4.78943 10.3423 5.09819C6.77118 4.91829 3.58623 3.27481 1.46881 0.758538C1.083 1.39336 0.880818 2.11617 0.883307 2.85178C0.883307 4.29104 1.64295 5.56012 2.80135 6.30649C2.11869 6.28059 1.45201 6.09984 0.855546 5.77892V5.82998C0.855546 7.84543 2.33446 9.51565 4.30549 9.89977C3.93541 9.99238 3.5547 10.0398 3.17234 10.0408C2.8922 10.0408 2.62721 10.014 2.35969 9.97757C2.90482 11.621 4.49225 12.8148 6.38253 12.8537C4.90362 13.9696 3.0512 14.626 1.03978 14.626C0.678885 14.626 0.345752 14.6138 0 14.5749C1.90794 15.7541 4.17173 16.4348 6.60966 16.4348C14.5241 16.4348 18.8548 10.1186 18.8548 4.63627C18.8548 4.45636 18.8548 4.27645 18.8422 4.09655C19.6801 3.50577 20.4145 2.77399 21 1.95225Z" fill="white"/>
</svg>
