<svg width="14" height="19" viewBox="0 0 14 19" fill="none" xmlns="http://www.w3.org/2000/svg">
<path d="M11.3947 9.00394C12.4257 8.47789 13.082 7.54217 12.9296 5.98719C12.7303 3.85866 10.9788 3.14559 8.65903 2.94669V0H6.85452V2.86475C6.38569 2.86475 5.90556 2.87663 5.42484 2.88791V0H3.62033V2.94669C2.95695 2.96688 2.18409 2.95678 0 2.94669V4.86444C1.42433 4.83951 2.1722 4.74807 2.34354 5.65945V13.7277C2.23467 14.4508 1.65458 14.3469 0.36352 14.3244L0.000594916 16.4642C3.29072 16.4642 3.62152 16.476 3.62152 16.476V18.9994H5.42603V16.5111C5.91806 16.523 6.39819 16.523 6.85571 16.523V19H8.66022V16.4766C11.6832 16.3128 13.7043 15.5528 13.9738 12.7112C14.1844 10.4313 13.1069 9.41361 11.3958 9.00453L11.3947 9.00394ZM5.45994 4.99328C6.4791 4.99328 9.6663 4.67742 9.6663 6.79407C9.6663 8.81691 6.4791 8.58298 5.45994 8.58298V4.99328ZM5.45994 14.3356V10.3832C6.67842 10.3832 10.41 10.0442 10.41 12.3591C10.41 14.5927 6.67842 14.3351 5.45994 14.3351V14.3356Z" fill="#1A368B"/>
</svg>
