<svg width="17" height="20" viewBox="0 0 17 20" fill="none" xmlns="http://www.w3.org/2000/svg">
<path d="M8.61018 0H11.9025C11.9699 8.47169e-05 12.0363 0.0157335 12.0966 0.0457247C12.1569 0.0757158 12.2095 0.119238 12.2502 0.172893C12.2909 0.226549 12.3186 0.288885 12.3312 0.355037C12.3439 0.421189 12.3411 0.489366 12.323 0.554246L9.73651 9.36867L14.1637 7.62713L13.6439 9.3918L9.19246 11.1053L7.60235 16.4745H16.1084C16.1758 16.4749 16.2423 16.4908 16.3025 16.5211C16.3627 16.5514 16.4151 16.5952 16.4556 16.6492C16.496 16.7031 16.5235 16.7656 16.5358 16.8319C16.5481 16.8982 16.5448 16.9664 16.5263 17.0313L15.7848 19.5795C15.7493 19.7008 15.6755 19.8072 15.5744 19.883C15.4734 19.9588 15.3505 19.9999 15.2242 20H2.23317L4.42849 12.582L0 14.321L0.535134 12.5869L4.96872 10.8479L8.05466 0.425559C8.0885 0.303688 8.16118 0.196187 8.26167 0.119381C8.36217 0.0425751 8.48498 0.000659746 8.61146 0H8.61018Z" fill="black"/>
</svg>
