<svg width="60" height="60" viewBox="0 0 60 60" fill="none" xmlns="http://www.w3.org/2000/svg">
<circle cx="30" cy="30" r="30" fill="#1348E4"/>
<path d="M31.4051 28.2374V31.0022C31.4051 31.3206 31.2749 31.6252 31.0446 31.8451L23.5629 38.9913C22.8025 39.7176 23.3166 41 24.3681 41H34.7353C35.0445 41 35.341 40.8772 35.5596 40.6586L41.2542 34.964C41.4728 34.7454 41.5956 34.4489 41.5956 34.1397V29.4639C41.5956 29.1547 41.4728 28.8582 41.2542 28.6396L36.7115 24.0968C36.2562 23.6416 35.5181 23.6416 35.0629 24.0968L31.7466 27.4131C31.5279 27.6318 31.4051 27.9283 31.4051 28.2374Z" fill="#1348E4"/>
<path d="M31.4051 28.2374V31.0022C31.4051 31.3206 31.2749 31.6252 31.0446 31.8451L23.5629 38.9913C22.8025 39.7176 23.3166 41 24.3681 41H34.7353C35.0445 41 35.341 40.8772 35.5596 40.6586L41.2542 34.964C41.4728 34.7454 41.5956 34.4489 41.5956 34.1397V29.4639C41.5956 29.1547 41.4728 28.8582 41.2542 28.6396L36.7115 24.0968C36.2562 23.6416 35.5181 23.6416 35.0629 24.0968L31.7466 27.4131C31.5279 27.6318 31.4051 27.9283 31.4051 28.2374Z" fill="white"/>
<path d="M29.1905 29.7626L29.1905 26.9979C29.1905 26.6794 29.3208 26.3749 29.5511 26.1549L37.0328 19.0087C37.7931 18.2825 37.2791 17 36.2276 17L25.8603 17C25.5512 17 25.2547 17.1229 25.036 17.3415L19.3415 23.036C19.1229 23.2546 19 23.5512 19 23.8603L19 28.5362C19 28.8453 19.1229 29.1419 19.3415 29.3605L23.8842 33.9032C24.3395 34.3585 25.0776 34.3585 25.5328 33.9032L28.8491 30.5869C29.0677 30.3683 29.1905 30.0718 29.1905 29.7626Z" fill="#1348E4"/>
<path d="M29.1905 29.7626L29.1905 26.9979C29.1905 26.6794 29.3208 26.3749 29.5511 26.1549L37.0328 19.0087C37.7931 18.2825 37.2791 17 36.2276 17L25.8603 17C25.5512 17 25.2547 17.1229 25.036 17.3415L19.3415 23.036C19.1229 23.2546 19 23.5512 19 23.8603L19 28.5362C19 28.8453 19.1229 29.1419 19.3415 29.3605L23.8842 33.9032C24.3395 34.3585 25.0776 34.3585 25.5328 33.9032L28.8491 30.5869C29.0677 30.3683 29.1905 30.0718 29.1905 29.7626Z" fill="white"/>
</svg>
