<svg width="155" height="36" viewBox="0 0 155 36" fill="none" xmlns="http://www.w3.org/2000/svg">
<path d="M53.2696 27.9901C52.2199 27.9901 51.3177 27.6122 50.5629 26.8564C49.8082 26.1006 49.4307 25.1976 49.4304 24.1474V22.6289H53.0763V23.3478C53.0763 23.8641 53.1085 24.1543 53.173 24.2185C53.2371 24.2836 53.5271 24.3153 54.0428 24.3153H64.6766C65.192 24.3153 65.4819 24.2836 65.5465 24.2185C65.6111 24.1535 65.6432 23.8641 65.6432 23.3478V20.8315C65.6432 20.3158 65.6109 20.03 65.5465 19.9742C65.4821 19.9183 65.1921 19.8907 64.6766 19.8913H53.2696C52.2199 19.8913 51.3177 19.5089 50.5629 18.7442C49.8082 17.9794 49.4307 17.0717 49.4304 16.0209V11.9288C49.4304 10.8783 49.8079 9.97512 50.5629 9.21935C51.3179 8.46358 52.2202 8.08569 53.2696 8.08569H65.4776C66.527 8.08569 67.4293 8.46358 68.1843 9.21935C68.9393 9.97512 69.3168 10.8783 69.3168 11.9288V13.4473H65.6432V12.7284C65.6432 12.2124 65.6109 11.9221 65.5465 11.8576C65.4821 11.7931 65.1921 11.7609 64.6766 11.7609H54.0428C53.5271 11.7609 53.2371 11.7931 53.173 11.8576C53.1088 11.9221 53.0766 12.2124 53.0763 12.7284V15.2447C53.0763 15.761 53.1085 16.0468 53.173 16.102C53.2374 16.1573 53.5273 16.1849 54.0428 16.1849H65.4776C66.527 16.1849 67.4293 16.5674 68.1843 17.3324C68.9393 18.0974 69.3168 19.0052 69.3168 20.0557V24.1474C69.3168 25.1982 68.9393 26.1013 68.1843 26.8568C67.4293 27.6123 66.527 27.9902 65.4776 27.9905L53.2696 27.9901Z" fill="#242047"/>
<path d="M81.6523 27.9903C80.5992 27.9903 79.6938 27.6124 78.9361 26.8568C78.1784 26.1011 77.7998 25.1982 77.8 24.1481V11.9286C77.8 10.8782 78.1787 9.97517 78.9361 9.21948C79.6935 8.46379 80.5989 8.08594 81.6523 8.08594H93.9033C94.9567 8.08594 95.8621 8.46379 96.6195 9.21948C97.3768 9.97517 97.7557 10.8782 97.756 11.9286V24.1481C97.756 25.1987 97.3771 26.1018 96.6195 26.8572C95.8618 27.6126 94.9564 27.9904 93.9033 27.9907L81.6523 27.9903ZM82.4287 24.3133H93.0995C93.5984 24.3133 93.8846 24.2817 93.9585 24.2166C94.0324 24.1515 94.0694 23.8622 94.0694 23.346V12.7303C94.0694 12.2143 94.0324 11.9241 93.9585 11.8596C93.8846 11.7951 93.5982 11.7629 93.0995 11.7629H82.4291C81.9115 11.7629 81.6204 11.7951 81.5558 11.8596C81.4911 11.9241 81.4588 12.2143 81.4588 12.7303V23.346C81.4588 23.8622 81.4911 24.1524 81.5558 24.2166C81.6201 24.2817 81.9111 24.3133 82.4291 24.3133H82.4287Z" fill="#242047"/>
<path d="M106.308 27.9903V8.08594H122.328C123.397 8.08594 124.308 8.46895 125.062 9.23497C125.816 10.001 126.194 10.9006 126.195 11.934V17.3046C126.195 18.3565 125.817 19.2608 125.062 20.0175C124.307 20.7743 123.396 21.1526 122.328 21.1526H121.251L126.167 26.9664V27.9907H122.19L116.472 21.1531L109.954 21.1804V27.9907L106.308 27.9903ZM110.921 17.4706H121.555C122.052 17.4706 122.332 17.4429 122.397 17.3876C122.461 17.3323 122.493 17.0461 122.493 16.5292V12.709C122.493 12.1923 122.461 11.9017 122.397 11.8371C122.332 11.7725 122.052 11.7402 121.555 11.7402H110.921C110.405 11.7402 110.115 11.7725 110.051 11.8371C109.986 11.9017 109.954 12.1923 109.954 12.709V16.5292C109.954 17.0461 109.986 17.3323 110.051 17.3876C110.115 17.4429 110.405 17.4706 110.921 17.4706Z" fill="#242047"/>
<path d="M138.447 27.9903C137.398 27.9903 136.495 27.6124 135.741 26.8566C134.986 26.1009 134.608 25.1979 134.608 24.1476V22.6292H138.254V23.3481C138.254 23.8643 138.286 24.1546 138.351 24.2188C138.415 24.2839 138.705 24.3155 139.221 24.3155H149.856C150.371 24.3155 150.661 24.2839 150.726 24.2188C150.79 24.1537 150.822 23.8643 150.822 23.3481V20.8317C150.822 20.316 150.79 20.0302 150.726 19.9744C150.661 19.9186 150.371 19.891 149.856 19.8915H138.447C137.398 19.8915 136.495 19.5092 135.741 18.7444C134.986 17.9797 134.608 17.0719 134.608 16.0211V11.929C134.608 10.8785 134.986 9.97537 135.741 9.21959C136.496 8.46382 137.398 8.08594 138.447 8.08594H150.655C151.705 8.08594 152.607 8.46382 153.362 9.21959C154.117 9.97537 154.495 10.8785 154.495 11.929V13.4475H150.821V12.7286C150.821 12.2126 150.789 11.9224 150.724 11.8579C150.66 11.7934 150.37 11.7611 149.856 11.7611H139.221C138.705 11.7611 138.415 11.7934 138.351 11.8579C138.287 11.9224 138.254 12.2126 138.254 12.7286V15.245C138.254 15.7612 138.286 16.047 138.351 16.1023C138.415 16.1575 138.705 16.1851 139.221 16.1851H150.655C151.705 16.1851 152.607 16.5676 153.362 17.3327C154.117 18.0977 154.495 19.0055 154.495 20.056V24.1476C154.495 25.1984 154.117 26.1016 153.362 26.8571C152.607 27.6125 151.705 27.9904 150.655 27.9907L138.447 27.9903Z" fill="#242047"/>
<path d="M18.6596 17.4269V20.3642C18.6596 21.1838 18.3244 21.9676 17.7317 22.5336L9.56835 30.331C7.61154 32.2 8.93446 35.5004 11.6405 35.5004H22.9777C23.7733 35.5004 24.5364 35.1843 25.099 34.6217L32.642 27.0787C33.2046 26.5161 33.5207 25.753 33.5207 24.9574V19.2154C33.5207 18.4197 33.2046 17.6567 32.642 17.0941L27.3172 11.7693C26.1456 10.5977 24.2461 10.5977 23.0746 11.7693L19.5383 15.3055C18.9757 15.8682 18.6596 16.6312 18.6596 17.4269Z" fill="#1348E4"/>
<path d="M15.4314 18.5736L15.4314 15.6362C15.4314 14.8167 15.7667 14.0329 16.3593 13.4668L24.5227 5.66952C26.4795 3.80046 25.1566 0.50012 22.4506 0.50012L11.1134 0.500119C10.3177 0.500118 9.55466 0.816187 8.99206 1.3788L1.44905 8.9218C0.886436 9.48441 0.570365 10.2475 0.570365 11.0431L0.570365 16.7851C0.570365 17.5807 0.886437 18.3438 1.44905 18.9064L6.77385 24.2312C7.94542 25.4028 9.84492 25.4028 11.0165 24.2312L14.5528 20.6949C15.1154 20.1323 15.4314 19.3693 15.4314 18.5736Z" fill="#1348E4"/>
</svg>
