<svg width="88" height="20" viewBox="0 0 88 20" fill="none" xmlns="http://www.w3.org/2000/svg">
<path d="M30.1133 15.7087C29.5135 15.7087 28.9979 15.4927 28.5667 15.0609C28.1354 14.629 27.9197 14.113 27.9195 13.5129V12.6452H30.0028V13.056C30.0028 13.351 30.0213 13.5169 30.0581 13.5536C30.0947 13.5907 30.2604 13.6088 30.5551 13.6088H36.6315C36.9259 13.6088 37.0916 13.5907 37.1285 13.5536C37.1654 13.5164 37.1838 13.351 37.1838 13.056V11.6181C37.1838 11.3234 37.1654 11.1601 37.1285 11.1282C37.0917 11.0963 36.926 11.0806 36.6315 11.0809H30.1133C29.5135 11.0809 28.9979 10.8624 28.5667 10.4254C28.1354 9.98842 27.9197 9.46971 27.9195 8.86926V6.53096C27.9195 5.93069 28.1352 5.41461 28.5667 4.98275C28.9981 4.55089 29.5136 4.33496 30.1133 4.33496H37.0892C37.6888 4.33496 38.2044 4.55089 38.6358 4.98275C39.0672 5.41461 39.2829 5.93069 39.2829 6.53096V7.39866H37.1838V6.98786C37.1838 6.69301 37.1654 6.52716 37.1285 6.4903C37.0917 6.45345 36.926 6.43502 36.6315 6.43502H30.5551C30.2604 6.43502 30.0947 6.45345 30.0581 6.4903C30.0214 6.52716 30.003 6.69301 30.0028 6.98786V8.42575C30.0028 8.72077 30.0213 8.88406 30.0581 8.91563C30.0949 8.94719 30.2606 8.96297 30.5551 8.96297H37.0892C37.6888 8.96297 38.2044 9.18155 38.6358 9.6187C39.0672 10.0559 39.2829 10.5746 39.2829 11.1748V13.5129C39.2829 14.1133 39.0672 14.6294 38.6358 15.0611C38.2044 15.4928 37.6888 15.7087 37.0892 15.7089L30.1133 15.7087Z" fill="#242047"/>
<path d="M46.3316 15.7087C45.7298 15.7087 45.2124 15.4927 44.7795 15.0609C44.3466 14.6291 44.1302 14.1132 44.1303 13.5131V6.53072C44.1303 5.93051 44.3467 5.4145 44.7795 4.98269C45.2123 4.55087 45.7296 4.33496 46.3316 4.33496H53.332C53.9339 4.33496 54.4513 4.55087 54.8841 4.98269C55.3169 5.4145 55.5333 5.93051 55.5335 6.53072V13.5131C55.5335 14.1135 55.317 14.6295 54.8841 15.0612C54.4511 15.4928 53.9338 15.7087 53.332 15.7089L46.3316 15.7087ZM46.7752 13.6076H52.8727C53.1578 13.6076 53.3213 13.5895 53.3636 13.5523C53.4058 13.5151 53.4269 13.3498 53.4269 13.0548V6.98882C53.4269 6.694 53.4058 6.52816 53.3636 6.49131C53.3213 6.45446 53.1577 6.43603 52.8727 6.43603H46.7755C46.4797 6.43603 46.3134 6.45446 46.2764 6.49131C46.2395 6.52816 46.221 6.694 46.221 6.98882V13.0548C46.221 13.3498 46.2395 13.5156 46.2764 13.5523C46.3132 13.5895 46.4795 13.6076 46.7755 13.6076H46.7752Z" fill="#242047"/>
<path d="M60.4204 15.7087V4.33496H69.5742C70.1851 4.33496 70.7059 4.55382 71.1367 4.99154C71.5674 5.42925 71.7832 5.94333 71.7838 6.53379V9.60267C71.7838 10.2037 71.5681 10.7205 71.1367 11.1529C70.7053 11.5853 70.1844 11.8015 69.5742 11.8015H68.9588L71.768 15.1236V15.7089H69.4954L66.2283 11.8017L62.5037 11.8174V15.7089L60.4204 15.7087ZM63.056 9.69749H69.1324C69.4163 9.69749 69.5767 9.68169 69.6136 9.65008C69.6504 9.61847 69.6688 9.45497 69.6688 9.15958V6.97664C69.6688 6.68141 69.6504 6.51534 69.6136 6.47844C69.5767 6.44153 69.4163 6.42308 69.1324 6.42308H63.056C62.7615 6.42308 62.5958 6.44153 62.559 6.47844C62.5221 6.51534 62.5037 6.68141 62.5037 6.97664V9.15958C62.5037 9.45497 62.5221 9.61847 62.559 9.65008C62.5958 9.68169 62.7615 9.69749 63.056 9.69749Z" fill="#242047"/>
<path d="M78.7853 15.7087C78.1855 15.7087 77.6699 15.4927 77.2387 15.0609C76.8074 14.629 76.5917 14.113 76.5915 13.5129V12.6452H78.6748V13.056C78.6748 13.351 78.6933 13.5169 78.7301 13.5536C78.7667 13.5907 78.9324 13.6088 79.2271 13.6088H85.3042C85.5987 13.6088 85.7644 13.5907 85.8013 13.5536C85.8382 13.5164 85.8565 13.351 85.8565 13.056V11.6181C85.8565 11.3234 85.8381 11.1601 85.8013 11.1282C85.7645 11.0963 85.5988 11.0806 85.3042 11.0809H78.7853C78.1855 11.0809 77.6699 10.8624 77.2387 10.4254C76.8074 9.98842 76.5917 9.46971 76.5915 8.86926V6.53096C76.5915 5.93069 76.8072 5.41461 77.2387 4.98275C77.6701 4.55089 78.1856 4.33496 78.7853 4.33496H85.7612C86.3608 4.33496 86.8764 4.55089 87.3078 4.98275C87.7392 5.41461 87.9549 5.93069 87.9549 6.53096V7.39865H85.8558V6.98786C85.8558 6.69301 85.8374 6.52716 85.8005 6.4903C85.7637 6.45345 85.5983 6.43502 85.3042 6.43502H79.2271C78.9324 6.43502 78.7667 6.45345 78.7301 6.4903C78.6934 6.52716 78.675 6.69301 78.6748 6.98786V8.42575C78.6748 8.72077 78.6933 8.88406 78.7301 8.91563C78.7669 8.94719 78.9326 8.96297 79.2271 8.96297H85.7612C86.3608 8.96297 86.8764 9.18155 87.3078 9.6187C87.7392 10.0559 87.9549 10.5746 87.9549 11.1748V13.5129C87.9549 14.1133 87.7392 14.6294 87.3078 15.0611C86.8764 15.4928 86.3608 15.7087 85.7612 15.7089L78.7853 15.7087Z" fill="#242047"/>
<path d="M10.3366 9.5838V11.4427C10.3366 11.8524 10.169 12.2443 9.87267 12.5274L4.75518 17.4154C3.77678 18.3499 4.43824 20.0001 5.79124 20.0001H12.8928C13.2906 20.0001 13.6721 19.842 13.9534 19.5607L18.3891 15.125C18.6705 14.8437 18.8285 14.4622 18.8285 14.0643V10.6058C18.8285 10.208 18.6705 9.82644 18.3891 9.54514L15.1322 6.2882C14.5464 5.70241 13.5967 5.70241 13.0109 6.2882L10.7759 8.52314C10.4946 8.80444 10.3366 9.18597 10.3366 9.5838Z" fill="#242047"/>
<path d="M8.49188 10.4162L8.49188 8.55735C8.49188 8.14759 8.65951 7.75567 8.95582 7.47265L14.0733 2.58464C15.0517 1.65011 14.3903 -6.02903e-05 13.0372 -6.04086e-05L5.93572 -6.10295e-05C5.53789 -6.10642e-05 5.15636 0.157974 4.87506 0.439279L0.439347 4.87499C0.158042 5.15629 6.52936e-06 5.53783 6.49458e-06 5.93565L6.19223e-06 9.3942C6.15745e-06 9.79203 0.158041 10.1736 0.439347 10.4549L3.69628 13.7118C4.28207 14.2976 5.23182 14.2976 5.8176 13.7118L8.05254 11.4769C8.33385 11.1956 8.49188 10.814 8.49188 10.4162Z" fill="#242047"/>
</svg>
