<svg width="40" height="41" viewBox="0 0 40 41" fill="none" xmlns="http://www.w3.org/2000/svg">
<circle cx="20" cy="20.6143" r="20" fill="#1348E4"/>
<path d="M20.8483 20.1294V22.1585C20.8483 22.7246 20.6193 23.2661 20.2144 23.6571L14.638 29.0433C13.3013 30.3344 14.2049 32.6143 16.0534 32.6143H23.798C24.3415 32.6143 24.8628 32.3959 25.2471 32.0073L30.3998 26.7967C30.7841 26.4081 31 25.881 31 25.3313V21.3649C31 20.8153 30.7841 20.2882 30.3998 19.8995L26.7624 16.2212C25.962 15.4119 24.6645 15.4119 23.8642 16.2212L21.4485 18.664C21.0642 19.0527 20.8483 19.5798 20.8483 20.1294Z" fill="white"/>
<path d="M19.1517 21.0991L19.1517 19.07C19.1517 18.5039 19.3807 17.9625 19.7856 17.5714L25.362 12.1852C26.6987 10.8941 25.7951 8.61426 23.9466 8.61426L16.202 8.61426C15.6585 8.61426 15.1372 8.83259 14.7529 9.22124L9.60023 14.4318C9.21591 14.8205 9 15.3476 9 15.8972L9 19.8636C9 20.4132 9.21591 20.9404 9.60023 21.329L13.2376 25.0073C14.038 25.8166 15.3355 25.8166 16.1358 25.0073L18.5515 22.5645C18.9358 22.1758 19.1517 21.6487 19.1517 21.0991Z" fill="white"/>
</svg>
