<svg width="159" height="48" viewBox="0 0 159 48" fill="none" xmlns="http://www.w3.org/2000/svg">
<path d="M5.81 30.0942C4.2214 30.0942 2.85603 29.5229 1.71388 28.3802C0.57173 27.2375 0.00043727 25.8722 0 24.2843V21.9885H5.51747V23.0754C5.51747 23.856 5.56622 24.2948 5.66373 24.3919C5.76081 24.4903 6.19961 24.5382 6.98013 24.5382H23.0727C23.8526 24.5382 24.2914 24.4903 24.3891 24.3919C24.4869 24.2935 24.5354 23.856 24.5354 23.0754V19.2708C24.5354 18.4911 24.4867 18.0591 24.3891 17.9747C24.2916 17.8903 23.8528 17.8485 23.0727 17.8494H5.81C4.2214 17.8494 2.85603 17.2712 1.71388 16.115C0.57173 14.9588 0.00043727 13.5863 0 11.9975V5.81051C0 4.22221 0.571293 2.8567 1.71388 1.71402C2.85646 0.571335 4.22184 0 5.81 0H24.2849C25.873 0 27.2384 0.571335 28.381 1.71402C29.5236 2.8567 30.0949 4.22221 30.0949 5.81051V8.10638H24.5354V7.01944C24.5354 6.23929 24.4867 5.80044 24.3891 5.70292C24.2916 5.60541 23.8528 5.55665 23.0727 5.55665H6.98013C6.19961 5.55665 5.76081 5.60541 5.66373 5.70292C5.56666 5.80044 5.51791 6.23929 5.51747 7.01944V10.824C5.51747 11.6046 5.56622 12.0367 5.66373 12.1202C5.76124 12.2037 6.20005 12.2455 6.98013 12.2455H24.2849C25.873 12.2455 27.2384 12.8238 28.381 13.9805C29.5236 15.1372 30.0949 16.5097 30.0949 18.098V24.2843C30.0949 25.8731 29.5236 27.2386 28.381 28.3808C27.2384 29.5231 25.873 30.0944 24.2849 30.0949L5.81 30.0942Z" fill="#1348E4"/>
<path d="M48.7625 30.0942C47.1688 30.0942 45.7986 29.5229 44.652 28.3804C43.5054 27.2378 42.9323 25.8727 42.9327 24.285V5.80991C42.9327 4.22178 43.5058 2.85644 44.652 1.71388C45.7982 0.571319 47.1683 3.05176e-05 48.7625 3.05176e-05H67.3024C68.8966 3.05176e-05 70.2668 0.571319 71.4129 1.71388C72.5591 2.85644 73.1324 4.22178 73.1328 5.80991V24.285C73.1328 25.8736 72.5595 27.2389 71.4129 28.381C70.2663 29.5232 68.8961 30.0944 67.3024 30.0949L48.7625 30.0942ZM49.9374 24.5349H66.086C66.841 24.5349 67.2741 24.487 67.386 24.3886C67.4979 24.2903 67.5538 23.8528 67.5538 23.0723V7.02199C67.5538 6.24192 67.4979 5.80312 67.386 5.70562C67.2741 5.60811 66.8408 5.55935 66.086 5.55935H49.9381C49.1548 5.55935 48.7143 5.60811 48.6164 5.70562C48.5185 5.80312 48.4696 6.24192 48.4696 7.02199V23.0723C48.4696 23.8528 48.5185 24.2916 48.6164 24.3886C48.7138 24.487 49.1542 24.5349 49.9381 24.5349H49.9374Z" fill="#1348E4"/>
<path d="M86.0766 30.0942V3.05176e-05H110.319C111.937 3.05176e-05 113.317 0.579127 114.458 1.73729C115.598 2.89546 116.17 4.2557 116.171 5.81802V13.9381C116.171 15.5285 115.6 16.8957 114.458 18.0399C113.315 19.184 111.936 19.7561 110.319 19.7561H108.69L116.129 28.5461V30.0949H110.111L101.458 19.7568L91.5941 19.7981V30.0949L86.0766 30.0942ZM93.0567 14.189H109.149C109.901 14.189 110.326 14.1472 110.424 14.0636C110.521 13.9799 110.57 13.5473 110.57 12.7657V6.98977C110.57 6.20861 110.521 5.7692 110.424 5.67156C110.326 5.57391 109.901 5.52509 109.149 5.52509H93.0567C92.2766 5.52509 91.8378 5.57391 91.7403 5.67156C91.6428 5.7692 91.5941 6.20861 91.5941 6.98977V12.7657C91.5941 13.5473 91.6428 13.9799 91.7403 14.0636C91.8378 14.1472 92.2766 14.189 93.0567 14.189Z" fill="#1348E4"/>
<path d="M134.716 30.0942C133.127 30.0942 131.762 29.5229 130.619 28.3802C129.477 27.2375 128.906 25.8722 128.906 24.2844V21.9885H134.423V23.0754C134.423 23.856 134.472 24.2949 134.569 24.3919C134.666 24.4903 135.105 24.5382 135.886 24.5382H151.98C152.76 24.5382 153.199 24.4903 153.297 24.3919C153.394 24.2936 153.443 23.856 153.443 23.0754V19.2709C153.443 18.4911 153.394 18.0591 153.297 17.9747C153.199 17.8903 152.76 17.8485 151.98 17.8494H134.716C133.127 17.8494 131.762 17.2713 130.619 16.115C129.477 14.9588 128.906 13.5863 128.906 11.9976V5.81054C128.906 4.22224 129.477 2.85673 130.619 1.71405C131.762 0.571365 133.127 3.05176e-05 134.716 3.05176e-05H153.19C154.779 3.05176e-05 156.144 0.571365 157.286 1.71405C158.429 2.85673 159 4.22224 159 5.81054V8.10641H153.441V7.01947C153.441 6.23932 153.392 5.80048 153.295 5.70296C153.197 5.60544 152.759 5.55668 151.98 5.55668H135.886C135.105 5.55668 134.666 5.60544 134.569 5.70296C134.472 5.80048 134.423 6.23932 134.423 7.01947V10.824C134.423 11.6046 134.472 12.0367 134.569 12.1202C134.667 12.2038 135.106 12.2455 135.886 12.2455H153.19C154.779 12.2455 156.144 12.8238 157.286 13.9805C158.429 15.1372 159 16.5097 159 18.098V24.2844C159 25.8731 158.429 27.2386 157.286 28.3808C156.144 29.5231 154.779 30.0944 153.19 30.0949L134.716 30.0942Z" fill="#1348E4"/>
<path d="M0 42.0126C0 38.9258 2.37417 36.7159 5.56445 36.7159C7.33469 36.7159 8.81335 37.3598 9.7786 38.5304L8.25691 39.9355C7.56914 39.1454 6.70554 38.7352 5.68168 38.7352C3.76454 38.7352 2.40384 40.0816 2.40384 42.0126C2.40384 43.9436 3.76454 45.2901 5.68168 45.2901C6.70554 45.2901 7.56914 44.8806 8.25691 44.0757L9.7786 45.4807C8.8141 46.6677 7.33469 47.3094 5.54962 47.3094C2.37417 47.3094 0 45.1002 0 42.0126Z" fill="#1348E4"/>
<path d="M25.3262 45.0027H20.5632L19.654 47.2075H17.2178L21.792 36.9196H24.1382L28.7281 47.2075H26.2354L25.3262 45.0027ZM24.5776 43.192L22.9495 39.2533L21.3222 43.192H24.5776Z" fill="#1348E4"/>
<path d="M45.9431 40.6527C45.9431 42.9454 44.2354 44.3708 41.5037 44.3708H39.449V47.2075H37.0813V36.9196H41.5037C44.2354 36.9196 45.9431 38.345 45.9431 40.6527ZM43.5495 40.6527C43.5495 39.5208 42.82 38.8599 41.3749 38.8599H39.4512V42.4305H41.3749C42.82 42.4305 43.5495 41.7696 43.5495 40.6527Z" fill="#1348E4"/>
<path d="M55.0092 36.9196H57.352V47.2075H55.0092V36.9196Z" fill="#1348E4"/>
<path d="M69.262 38.8579H66.0078V36.9196H74.8696V38.8579H71.6154V47.2075H69.2583L69.262 38.8579Z" fill="#1348E4"/>
<path d="M89.805 45.0027H85.0397L84.1306 47.2075H81.6966L86.2716 36.9196H88.617L93.2068 47.2075H90.7179L89.805 45.0027ZM89.0571 43.195L87.4298 39.2563L85.8017 43.195H89.0571Z" fill="#1348E4"/>
<path d="M101.559 36.9196H103.942V45.2692H109.097V47.2075H101.559V36.9196Z" fill="#1348E4"/>
</svg>
