<svg width="149" height="34" viewBox="0 0 149 34" fill="none" xmlns="http://www.w3.org/2000/svg">
<path d="M50.1394 26.3177C49.1197 26.3177 48.2432 25.9509 47.5101 25.2174C46.7769 24.4839 46.4102 23.6076 46.4099 22.5883V21.1146H49.9516V21.8123C49.9516 22.3133 49.9829 22.595 50.0455 22.6573C50.1078 22.7205 50.3895 22.7513 50.8905 22.7513H61.2205C61.7211 22.7513 62.0027 22.7205 62.0655 22.6573C62.1282 22.5942 62.1594 22.3133 62.1594 21.8123V19.3701C62.1594 18.8696 62.1281 18.5922 62.0655 18.5381C62.0029 18.4839 61.7212 18.4571 61.2205 18.4576H50.1394C49.1197 18.4576 48.2432 18.0865 47.5101 17.3443C46.7769 16.6021 46.4102 15.7211 46.4099 14.7013V10.7298C46.4099 9.71027 46.7766 8.83374 47.5101 8.10024C48.2435 7.36674 49.1199 7 50.1394 7H61.9985C63.018 7 63.8944 7.36674 64.6279 8.10024C65.3613 8.83374 65.728 9.71027 65.728 10.7298V12.2035H62.1594V11.5058C62.1594 11.005 62.1281 10.7233 62.0655 10.6607C62.0029 10.5981 61.7212 10.5669 61.2205 10.5669H50.8905C50.3895 10.5669 50.1078 10.5981 50.0455 10.6607C49.9832 10.7233 49.9519 11.005 49.9516 11.5058V13.948C49.9516 14.4491 49.9829 14.7264 50.0455 14.78C50.1081 14.8337 50.3898 14.8605 50.8905 14.8605H61.9985C63.018 14.8605 63.8944 15.2317 64.6279 15.9742C65.3613 16.7167 65.728 17.5977 65.728 18.6172V22.5883C65.728 23.6081 65.3613 24.4846 64.6279 25.2178C63.8944 25.9511 63.018 26.3178 61.9985 26.3181L50.1394 26.3177Z" fill="black"/>
<path d="M77.7109 26.3177C76.6879 26.3177 75.8084 25.951 75.0723 25.2176C74.3363 24.4841 73.9685 23.6079 73.9688 22.5887V10.7294C73.9688 9.70999 74.3366 8.83357 75.0723 8.10015C75.8081 7.36673 76.6876 7.00002 77.7109 7.00002H89.6118C90.6351 7.00002 91.5146 7.36673 92.2504 8.10015C92.9861 8.83357 93.3541 9.70999 93.3544 10.7294V22.5887C93.3544 23.6084 92.9864 24.4849 92.2504 25.218C91.5144 25.9511 90.6348 26.3178 89.6118 26.3181L77.7109 26.3177ZM78.4651 22.7491H88.831C89.3156 22.7491 89.5936 22.7184 89.6655 22.6552C89.7373 22.5921 89.7732 22.3113 89.7732 21.8103V11.5075C89.7732 11.0067 89.7373 10.7251 89.6655 10.6625C89.5936 10.5999 89.3155 10.5686 88.831 10.5686H78.4655C77.9627 10.5686 77.6799 10.5999 77.6171 10.6625C77.5543 10.7251 77.5229 11.0067 77.5229 11.5075V21.8103C77.5229 22.3113 77.5543 22.5929 77.6171 22.6552C77.6797 22.7184 77.9623 22.7491 78.4655 22.7491H78.4651Z" fill="black"/>
<path d="M101.663 26.3177V7.00002H117.225C118.263 7.00002 119.149 7.37175 119.881 8.11518C120.613 8.85862 120.98 9.73176 120.981 10.7346V15.947C120.981 16.9678 120.614 17.8455 119.881 18.5799C119.148 19.3144 118.262 19.6816 117.225 19.6816H116.178L120.954 25.324V26.3181H117.091L111.537 19.682L105.205 19.7086V26.3181L101.663 26.3177ZM106.144 16.108H116.474C116.956 16.108 117.229 16.0812 117.292 16.0275C117.354 15.9738 117.386 15.6961 117.386 15.1944V11.4868C117.386 10.9853 117.354 10.7033 117.292 10.6406C117.229 10.5779 116.956 10.5466 116.474 10.5466H106.144C105.643 10.5466 105.361 10.5779 105.299 10.6406C105.236 10.7033 105.205 10.9853 105.205 11.4868V15.1944C105.205 15.6961 105.236 15.9738 105.299 16.0275C105.361 16.0812 105.643 16.108 106.144 16.108Z" fill="black"/>
<path d="M132.885 26.3177C131.865 26.3177 130.989 25.9509 130.255 25.2174C129.522 24.484 129.155 23.6076 129.155 22.5883V21.1146H132.697V21.8123C132.697 22.3134 132.728 22.595 132.791 22.6574C132.853 22.7205 133.135 22.7513 133.636 22.7513H143.967C144.468 22.7513 144.749 22.7205 144.812 22.6574C144.875 22.5942 144.906 22.3134 144.906 21.8123V19.3701C144.906 18.8696 144.875 18.5923 144.812 18.5381C144.749 18.4839 144.468 18.4571 143.967 18.4576H132.885C131.865 18.4576 130.989 18.0866 130.255 17.3444C129.522 16.6022 129.155 15.7211 129.155 14.7013V10.7298C129.155 9.71029 129.522 8.83376 130.255 8.10026C130.989 7.36676 131.865 7.00002 132.885 7.00002H144.744C145.763 7.00002 146.64 7.36676 147.373 8.10026C148.107 8.83376 148.473 9.71029 148.473 10.7298V12.2036H144.905V11.5058C144.905 11.0051 144.873 10.7234 144.811 10.6608C144.748 10.5982 144.467 10.5669 143.967 10.5669H133.636C133.135 10.5669 132.853 10.5982 132.791 10.6608C132.728 10.7234 132.697 11.0051 132.697 11.5058V13.948C132.697 14.4491 132.728 14.7264 132.791 14.7801C132.853 14.8337 133.135 14.8605 133.636 14.8605H144.744C145.763 14.8605 146.64 15.2317 147.373 15.9742C148.107 16.7167 148.473 17.5977 148.473 18.6172V22.5883C148.473 23.6081 148.107 24.4847 147.373 25.2179C146.64 25.9511 145.763 26.3178 144.744 26.3181L132.885 26.3177Z" fill="black"/>
<path d="M17.5738 15.9199V19.8365C17.5738 20.2877 17.3893 20.7191 17.063 21.0307L6.4641 31.1544C5.38692 32.1833 6.11516 34 7.60474 34H22.2916C22.7296 34 23.1496 33.826 23.4593 33.5163L31.5265 25.4491C31.8362 25.1394 32.0102 24.7193 32.0102 24.2814V17.6573C32.0102 17.2193 31.8362 16.7993 31.5265 16.4896L25.091 10.0541C24.4461 9.40914 23.4005 9.40914 22.7556 10.0541L18.0575 14.7521C17.7478 15.0618 17.5738 15.4819 17.5738 15.9199Z" fill="#1348E4"/>
<path d="M14.4364 18.0801L14.4364 14.1635C14.4364 13.7124 14.6209 13.2809 14.9472 12.9693L25.5461 2.84563C26.6233 1.81676 25.895 3.80026e-06 24.4054 3.67003e-06L9.71861 2.38607e-06C9.28062 2.34778e-06 8.86058 0.173991 8.55088 0.483693L0.48365 8.55092C0.173948 8.86062 -4.25447e-05 9.28067 -4.25829e-05 9.71865L-4.3162e-05 16.3427C-4.32003e-05 16.7807 0.173947 17.2007 0.483649 17.5105L6.91915 23.9459C7.56407 24.5909 8.60969 24.5909 9.25461 23.946L13.9527 19.2479C14.2624 18.9382 14.4364 18.5181 14.4364 18.0801Z" fill="#1348E4"/>
</svg>
