<svg width="154" height="34" viewBox="0 0 154 34" fill="none" xmlns="http://www.w3.org/2000/svg">
<path d="M52.6993 26.9901C51.6496 26.9901 50.7473 26.6122 49.9926 25.8564C49.2379 25.1006 48.8604 24.1976 48.8601 23.1474V21.6289H52.506V22.3478C52.506 22.8641 52.5382 23.1543 52.6026 23.2185C52.6668 23.2836 52.9567 23.3153 53.4725 23.3153H64.1063C64.6217 23.3153 64.9116 23.2836 64.9762 23.2185C65.0408 23.1535 65.0728 22.8641 65.0728 22.3478V19.8315C65.0728 19.3158 65.0406 19.03 64.9762 18.9742C64.9118 18.9183 64.6218 18.8907 64.1063 18.8913H52.6993C51.6496 18.8913 50.7473 18.5089 49.9926 17.7442C49.2379 16.9794 48.8604 16.0717 48.8601 15.0209V10.9288C48.8601 9.87827 49.2376 8.97512 49.9926 8.21935C50.7476 7.46358 51.6499 7.08569 52.6993 7.08569H64.9073C65.9567 7.08569 66.8589 7.46358 67.614 8.21935C68.369 8.97512 68.7465 9.87827 68.7465 10.9288V12.4473H65.0728V11.7284C65.0728 11.2124 65.0406 10.9221 64.9762 10.8576C64.9118 10.7931 64.6218 10.7609 64.1063 10.7609H53.4725C52.9567 10.7609 52.6668 10.7931 52.6026 10.8576C52.5385 10.9221 52.5063 11.2124 52.506 11.7284V14.2447C52.506 14.761 52.5382 15.0468 52.6026 15.102C52.6671 15.1573 52.957 15.1849 53.4725 15.1849H64.9073C65.9567 15.1849 66.8589 15.5674 67.614 16.3324C68.369 17.0974 68.7465 18.0052 68.7465 19.0557V23.1474C68.7465 24.1982 68.369 25.1013 67.614 25.8568C66.8589 26.6123 65.9567 26.9902 64.9073 26.9905L52.6993 26.9901Z" fill="white"/>
<path d="M81.082 26.9902C80.0289 26.9902 79.1235 26.6123 78.3658 25.8566C77.6081 25.1009 77.2294 24.198 77.2297 23.1479V10.9285C77.2297 9.87809 77.6084 8.97505 78.3658 8.21936C79.1232 7.46367 80.0286 7.08582 81.082 7.08582H93.3329C94.3864 7.08582 95.2918 7.46367 96.0491 8.21936C96.8065 8.97505 97.1853 9.87809 97.1856 10.9285V23.1479C97.1856 24.1986 96.8068 25.1017 96.0491 25.8571C95.2915 26.6125 94.3861 26.9903 93.3329 26.9906L81.082 26.9902ZM81.8584 23.3132H92.5292C93.028 23.3132 93.3142 23.2816 93.3882 23.2165C93.4621 23.1514 93.4991 22.8621 93.4991 22.3458V11.7302C93.4991 11.2142 93.4621 10.924 93.3882 10.8595C93.3142 10.795 93.0279 10.7628 92.5292 10.7628H81.8588C81.3412 10.7628 81.0501 10.795 80.9854 10.8595C80.9208 10.924 80.8884 11.2142 80.8884 11.7302V22.3458C80.8884 22.8621 80.9208 23.1523 80.9854 23.2165C81.0498 23.2816 81.3408 23.3132 81.8588 23.3132H81.8584Z" fill="white"/>
<path d="M105.738 26.9902V7.08582H121.757C122.826 7.08582 123.738 7.46883 124.492 8.23485C125.246 9.00086 125.623 9.90052 125.624 10.9338V16.3045C125.624 17.3563 125.247 18.2606 124.492 19.0174C123.737 19.7741 122.825 20.1525 121.757 20.1525H120.68L125.597 25.9663V26.9906H121.62L115.902 20.1529L109.384 20.1803V26.9906L105.738 26.9902ZM110.35 16.4704H120.984C121.481 16.4704 121.762 16.4428 121.826 16.3875C121.891 16.3321 121.923 16.046 121.923 15.5291V11.7088C121.923 11.1922 121.891 10.9016 121.826 10.837C121.762 10.7724 121.481 10.7401 120.984 10.7401H110.35C109.835 10.7401 109.545 10.7724 109.48 10.837C109.416 10.9016 109.384 11.1922 109.384 11.7088V15.5291C109.384 16.046 109.416 16.3321 109.48 16.3875C109.545 16.4428 109.835 16.4704 110.35 16.4704V16.4704Z" fill="white"/>
<path d="M137.877 26.9902C136.827 26.9902 135.925 26.6123 135.17 25.8565C134.416 25.1007 134.038 24.1977 134.038 23.1475V21.629H137.684V22.3479C137.684 22.8642 137.716 23.1545 137.781 23.2187C137.845 23.2837 138.135 23.3154 138.65 23.3154H149.285C149.801 23.3154 150.091 23.2837 150.155 23.2187C150.22 23.1536 150.252 22.8642 150.252 22.3479V19.8316C150.252 19.3159 150.22 19.0301 150.155 18.9743C150.091 18.9185 149.801 18.8908 149.285 18.8914H137.877C136.827 18.8914 135.925 18.509 135.17 17.7443C134.416 16.9796 134.038 16.0718 134.038 15.021V10.9289C134.038 9.87839 134.415 8.97524 135.17 8.21947C135.925 7.4637 136.828 7.08582 137.877 7.08582H150.085C151.135 7.08582 152.037 7.4637 152.792 8.21947C153.547 8.97524 153.924 9.87839 153.924 10.9289V12.4474H150.251V11.7285C150.251 11.2125 150.218 10.9222 150.154 10.8577C150.09 10.7932 149.8 10.761 149.285 10.761H138.65C138.135 10.761 137.845 10.7932 137.781 10.8577C137.716 10.9222 137.684 11.2125 137.684 11.7285V14.2448C137.684 14.7611 137.716 15.0469 137.781 15.1021C137.845 15.1574 138.135 15.185 138.65 15.185H150.085C151.135 15.185 152.037 15.5675 152.792 16.3325C153.547 17.0976 153.924 18.0053 153.924 19.0558V23.1475C153.924 24.1983 153.547 25.1015 152.792 25.8569C152.037 26.6124 151.135 26.9903 150.085 26.9906L137.877 26.9902Z" fill="white"/>
<path d="M17.5738 15.9198V19.8365C17.5738 20.2876 17.3892 20.7191 17.063 21.0307L6.46405 31.1543C5.38687 32.1832 6.11511 33.9999 7.6047 33.9999H22.2915C22.7295 33.9999 23.1496 33.826 23.4593 33.5163L31.5265 25.449C31.8362 25.1393 32.0102 24.7193 32.0102 24.2813V17.6572C32.0102 17.2192 31.8362 16.7992 31.5265 16.4895L25.091 10.054C24.4461 9.40908 23.4004 9.40908 22.7555 10.054L18.0575 14.7521C17.7478 15.0618 17.5738 15.4818 17.5738 15.9198Z" fill="#1348E4"/>
<path d="M17.5738 15.9198V19.8365C17.5738 20.2876 17.3892 20.7191 17.063 21.0307L6.46405 31.1543C5.38687 32.1832 6.11511 33.9999 7.6047 33.9999H22.2915C22.7295 33.9999 23.1496 33.826 23.4593 33.5163L31.5265 25.449C31.8362 25.1393 32.0102 24.7193 32.0102 24.2813V17.6572C32.0102 17.2192 31.8362 16.7992 31.5265 16.4895L25.091 10.054C24.4461 9.40908 23.4004 9.40908 22.7555 10.054L18.0575 14.7521C17.7478 15.0618 17.5738 15.4818 17.5738 15.9198Z" fill="white"/>
<path d="M14.4364 18.0802L14.4364 14.1635C14.4364 13.7124 14.6209 13.2809 14.9471 12.9693L25.5461 2.84567C26.6233 1.8168 25.895 5.01814e-05 24.4054 5.00512e-05L9.7186 4.87672e-05C9.28062 4.87289e-05 8.86057 0.174036 8.55087 0.483738L0.483641 8.55096C0.17394 8.86066 -4.97001e-05 9.28071 -4.97384e-05 9.7187L-5.03175e-05 16.3428C-5.03558e-05 16.7807 0.173939 17.2008 0.483641 17.5105L6.91914 23.946C7.56406 24.5909 8.60968 24.5909 9.2546 23.946L13.9527 19.2479C14.2624 18.9382 14.4364 18.5182 14.4364 18.0802Z" fill="#1348E4"/>
<path d="M14.4364 18.0802L14.4364 14.1635C14.4364 13.7124 14.6209 13.2809 14.9471 12.9693L25.5461 2.84567C26.6233 1.8168 25.895 5.01814e-05 24.4054 5.00512e-05L9.7186 4.87672e-05C9.28062 4.87289e-05 8.86057 0.174036 8.55087 0.483738L0.483641 8.55096C0.17394 8.86066 -4.97001e-05 9.28071 -4.97384e-05 9.7187L-5.03175e-05 16.3428C-5.03558e-05 16.7807 0.173939 17.2008 0.483641 17.5105L6.91914 23.946C7.56406 24.5909 8.60968 24.5909 9.2546 23.946L13.9527 19.2479C14.2624 18.9382 14.4364 18.5182 14.4364 18.0802Z" fill="white"/>
</svg>
