<svg width="149" height="34" viewBox="0 0 149 34" fill="none" xmlns="http://www.w3.org/2000/svg">
<path d="M50.1394 21.2187C49.1197 21.2187 48.2432 20.8519 47.5101 20.1184C46.7769 19.3849 46.4102 18.5085 46.4099 17.4893V16.0155H49.9516V16.7133C49.9516 17.2143 49.9829 17.496 50.0455 17.5583C50.1078 17.6215 50.3895 17.6522 50.8905 17.6522H61.2205C61.7211 17.6522 62.0027 17.6215 62.0655 17.5583C62.1282 17.4952 62.1594 17.2143 62.1594 16.7133V14.2711C62.1594 13.7706 62.1281 13.4932 62.0655 13.439C62.0029 13.3849 61.7212 13.3581 61.2205 13.3586H50.1394C49.1197 13.3586 48.2432 12.9875 47.5101 12.2453C46.7769 11.5031 46.4102 10.6221 46.4099 9.60228V5.63079C46.4099 4.61125 46.7766 3.73472 47.5101 3.00123C48.2435 2.26773 49.1199 1.90099 50.1394 1.90099H61.9985C63.018 1.90099 63.8944 2.26773 64.6279 3.00123C65.3613 3.73472 65.728 4.61125 65.728 5.63079V7.10453H62.1594V6.40682C62.1594 5.90603 62.1281 5.62433 62.0655 5.56173C62.0029 5.49914 61.7212 5.46784 61.2205 5.46784H50.8905C50.3895 5.46784 50.1078 5.49914 50.0455 5.56173C49.9832 5.62433 49.9519 5.90603 49.9516 6.40682V8.849C49.9516 9.35007 49.9829 9.62741 50.0455 9.68103C50.1081 9.73464 50.3898 9.76145 50.8905 9.76145H61.9985C63.018 9.76145 63.8944 10.1327 64.6279 10.8752C65.3613 11.6176 65.728 12.4987 65.728 13.5182V17.4893C65.728 18.5091 65.3613 19.3856 64.6279 20.1188C63.8944 20.8521 63.018 21.2188 61.9985 21.2191L50.1394 21.2187Z" fill="black"/>
<path d="M77.7109 21.2187C76.6879 21.2187 75.8084 20.852 75.0723 20.1186C74.3363 19.3851 73.9685 18.5089 73.9688 17.4897V5.63041C73.9688 4.61098 74.3366 3.73455 75.0723 3.00114C75.8081 2.26772 76.6876 1.901 77.7109 1.901H89.6118C90.6351 1.901 91.5146 2.26772 92.2504 3.00114C92.9861 3.73455 93.3541 4.61098 93.3544 5.63041V17.4897C93.3544 18.5094 92.9864 19.3858 92.2504 20.119C91.5144 20.8521 90.6348 21.2188 89.6118 21.2191L77.7109 21.2187ZM78.4651 17.6501H88.831C89.3156 17.6501 89.5936 17.6194 89.6655 17.5562C89.7373 17.4931 89.7732 17.2123 89.7732 16.7112V6.40845C89.7732 5.90772 89.7373 5.62605 89.6655 5.56346C89.5936 5.50087 89.3155 5.46957 88.831 5.46957H78.4655C77.9627 5.46957 77.6799 5.50087 77.6171 5.56346C77.5543 5.62605 77.5229 5.90772 77.5229 6.40845V16.7112C77.5229 17.2123 77.5543 17.4939 77.6171 17.5562C77.6797 17.6194 77.9623 17.6501 78.4655 17.6501H78.4651Z" fill="black"/>
<path d="M101.663 21.2187V1.901H117.225C118.263 1.901 119.149 2.27273 119.881 3.01617C120.613 3.7596 120.98 4.63275 120.981 5.63561V10.848C120.981 11.8688 120.614 12.7465 119.881 13.4809C119.148 14.2153 118.262 14.5826 117.225 14.5826H116.178L120.954 20.225V21.2191H117.091L111.537 14.583L105.205 14.6096V21.2191L101.663 21.2187ZM106.144 11.009H116.474C116.956 11.009 117.229 10.9822 117.292 10.9285C117.354 10.8748 117.386 10.5971 117.386 10.0954V6.38777C117.386 5.88633 117.354 5.60428 117.292 5.5416C117.229 5.47892 116.956 5.44758 116.474 5.44758H106.144C105.643 5.44758 105.361 5.47892 105.299 5.5416C105.236 5.60428 105.205 5.88633 105.205 6.38777V10.0954C105.205 10.5971 105.236 10.8748 105.299 10.9285C105.361 10.9822 105.643 11.009 106.144 11.009Z" fill="black"/>
<path d="M132.885 21.2187C131.865 21.2187 130.989 20.8519 130.255 20.1184C129.522 19.3849 129.155 18.5086 129.155 17.4893V16.0156H132.697V16.7133C132.697 17.2143 132.728 17.496 132.791 17.5583C132.853 17.6215 133.135 17.6523 133.636 17.6523H143.967C144.468 17.6523 144.749 17.6215 144.812 17.5583C144.875 17.4952 144.906 17.2143 144.906 16.7133V14.2711C144.906 13.7706 144.875 13.4932 144.812 13.4391C144.749 13.3849 144.468 13.3581 143.967 13.3586H132.885C131.865 13.3586 130.989 12.9875 130.255 12.2453C129.522 11.5031 129.155 10.6221 129.155 9.6023V5.63081C129.155 4.61127 129.522 3.73474 130.255 3.00125C130.989 2.26775 131.865 1.901 132.885 1.901H144.744C145.763 1.901 146.64 2.26775 147.373 3.00125C148.107 3.73474 148.473 4.61127 148.473 5.63081V7.10455H144.905V6.40684C144.905 5.90605 144.873 5.62435 144.811 5.56175C144.748 5.49915 144.467 5.46786 143.967 5.46786H133.636C133.135 5.46786 132.853 5.49915 132.791 5.56175C132.728 5.62435 132.697 5.90605 132.697 6.40684V8.84902C132.697 9.35009 132.728 9.62743 132.791 9.68105C132.853 9.73466 133.135 9.76147 133.636 9.76147H144.744C145.763 9.76147 146.64 10.1327 147.373 10.8752C148.107 11.6177 148.473 12.4987 148.473 13.5182V17.4893C148.473 18.5091 148.107 19.3856 147.373 20.1189C146.64 20.8521 145.763 21.2188 144.744 21.2191L132.885 21.2187Z" fill="black"/>
<path d="M46.4099 28.8692C46.4099 26.8877 47.9339 25.4692 49.9818 25.4692C51.1181 25.4692 52.0673 25.8825 52.6869 26.6339L51.7101 27.5358C51.2686 27.0287 50.7142 26.7654 50.057 26.7654C48.8264 26.7654 47.953 27.6296 47.953 28.8692C47.953 30.1087 48.8264 30.973 50.057 30.973C50.7142 30.973 51.2686 30.7101 51.7101 30.1935L52.6869 31.0954C52.0677 31.8573 51.1181 32.2692 49.9722 32.2692C47.9339 32.2692 46.4099 30.8511 46.4099 28.8692Z" fill="black"/>
<path d="M62.6669 30.7885H59.6095L59.0258 32.2038H57.4621L60.3983 25.5999H61.9043L64.8505 32.2038H63.2505L62.6669 30.7885ZM62.1863 29.6263L61.1413 27.098L60.0967 29.6263H62.1863Z" fill="black"/>
<path d="M75.901 27.9962C75.901 29.468 74.8048 30.3829 73.0513 30.3829H71.7324V32.2038H70.2125V25.5999H73.0513C74.8048 25.5999 75.901 26.5149 75.901 27.9962ZM74.3645 27.9962C74.3645 27.2697 73.8962 26.8454 72.9687 26.8454H71.7338V29.1374H72.9687C73.8962 29.1374 74.3645 28.7132 74.3645 27.9962Z" fill="black"/>
<path d="M81.7207 25.5999H83.2246V32.2038H81.7207V25.5999Z" fill="black"/>
<path d="M90.8696 26.8442H88.7807V25.5999H94.4692V26.8442H92.3802V32.2038H90.8672L90.8696 26.8442Z" fill="black"/>
<path d="M104.056 30.7885H100.998L100.414 32.2038H98.8517L101.788 25.5999H103.294L106.24 32.2038H104.642L104.056 30.7885ZM103.576 29.6282L102.532 27.0999L101.487 29.6282H103.576Z" fill="black"/>
<path d="M111.602 25.5999H113.131V30.9596H116.44V32.2038H111.602V25.5999Z" fill="black"/>
<path d="M17.5738 15.9199V19.8365C17.5738 20.2877 17.3893 20.7191 17.063 21.0307L6.4641 31.1544C5.38692 32.1833 6.11516 34 7.60474 34H22.2916C22.7296 34 23.1496 33.826 23.4593 33.5163L31.5265 25.4491C31.8362 25.1394 32.0102 24.7193 32.0102 24.2814V17.6573C32.0102 17.2193 31.8362 16.7993 31.5265 16.4896L25.091 10.0541C24.4461 9.40914 23.4005 9.40914 22.7556 10.0541L18.0575 14.7521C17.7478 15.0618 17.5738 15.4819 17.5738 15.9199Z" fill="#1348E4"/>
<path d="M14.4364 18.0801L14.4364 14.1635C14.4364 13.7124 14.6209 13.2809 14.9472 12.9693L25.5461 2.84563C26.6233 1.81676 25.895 3.80026e-06 24.4054 3.67003e-06L9.71861 2.38607e-06C9.28062 2.34778e-06 8.86058 0.173991 8.55088 0.483693L0.48365 8.55092C0.173948 8.86062 -4.25447e-05 9.28067 -4.25829e-05 9.71865L-4.3162e-05 16.3427C-4.32003e-05 16.7807 0.173947 17.2007 0.483649 17.5105L6.91915 23.9459C7.56407 24.5909 8.60969 24.5909 9.25461 23.946L13.9527 19.2479C14.2624 18.9382 14.4364 18.5181 14.4364 18.0801Z" fill="#1348E4"/>
</svg>
