<svg width="88" height="20" viewBox="0 0 88 20" fill="none" xmlns="http://www.w3.org/2000/svg">
<path d="M29.4936 12.4815C28.8938 12.4815 28.3782 12.2658 27.947 11.8343C27.5157 11.4028 27.3 10.8873 27.2998 10.2877V9.42085H29.3832V9.83126C29.3832 10.126 29.4016 10.2917 29.4384 10.3284C29.475 10.3655 29.6407 10.3836 29.9355 10.3836H36.0119C36.3064 10.3836 36.4721 10.3655 36.509 10.3284C36.5459 10.2912 36.5642 10.126 36.5642 9.83126V8.39468C36.5642 8.10027 36.5458 7.93713 36.509 7.90526C36.4721 7.87339 36.3065 7.85762 36.0119 7.85795H29.4936C28.8938 7.85795 28.3782 7.63965 27.947 7.20306C27.5157 6.76648 27.3 6.24823 27.2998 5.64834V3.31217C27.2998 2.71244 27.5155 2.19683 27.947 1.76536C28.3784 1.3339 28.8939 1.11816 29.4936 1.11816H36.4696C37.0693 1.11816 37.5848 1.3339 38.0162 1.76536C38.4477 2.19683 38.6634 2.71244 38.6634 3.31217V4.17907H36.5642V3.76865C36.5642 3.47407 36.5458 3.30837 36.509 3.27155C36.4721 3.23472 36.3065 3.21631 36.0119 3.21631H29.9355C29.6407 3.21631 29.475 3.23472 29.4384 3.27155C29.4017 3.30837 29.3833 3.47407 29.3832 3.76865V5.20523C29.3832 5.49998 29.4016 5.66312 29.4384 5.69466C29.4752 5.7262 29.6409 5.74197 29.9355 5.74197H36.4696C37.0693 5.74197 37.5848 5.96034 38.0162 6.39709C38.4477 6.83385 38.6634 7.35209 38.6634 7.95182V10.2877C38.6634 10.8876 38.4477 11.4032 38.0162 11.8345C37.5848 12.2658 37.0693 12.4816 36.4696 12.4818L29.4936 12.4815Z" fill="#333333"/>
<path d="M45.712 12.4815C45.1102 12.4815 44.5929 12.2658 44.1599 11.8344C43.727 11.4029 43.5106 10.8875 43.5107 10.288V3.31193C43.5107 2.71226 43.7271 2.19672 44.1599 1.7653C44.5927 1.33388 45.1101 1.11816 45.712 1.11816H52.7125C53.3145 1.11816 53.8319 1.33388 54.2646 1.7653C54.6974 2.19672 54.9139 2.71226 54.9141 3.31193V10.288C54.9141 10.8878 54.6976 11.4034 54.2646 11.8346C53.8317 12.2659 53.3143 12.4816 52.7125 12.4818L45.712 12.4815ZM46.1557 10.3823H52.2532C52.5383 10.3823 52.7018 10.3643 52.7441 10.3271C52.7863 10.29 52.8075 10.1248 52.8075 9.83007V3.7696C52.8075 3.47505 52.7863 3.30937 52.7441 3.27255C52.7018 3.23573 52.5382 3.21732 52.2532 3.21732H46.1559C45.8602 3.21732 45.6938 3.23573 45.6568 3.27255C45.6199 3.30937 45.6014 3.47505 45.6014 3.7696V9.83007C45.6014 10.1248 45.6199 10.2905 45.6568 10.3271C45.6936 10.3643 45.8599 10.3823 46.1559 10.3823H46.1557Z" fill="#333333"/>
<path d="M59.8018 12.4815V1.11816H68.9557C69.5666 1.11816 70.0874 1.33683 70.5182 1.77414C70.949 2.21146 71.1647 2.72507 71.1653 3.31499V6.38108C71.1653 6.98158 70.9496 7.49785 70.5182 7.92987C70.0868 8.36189 69.5659 8.5779 68.9557 8.5779H68.3402L71.1495 11.897V12.4818H68.8769L65.6097 8.57815L61.8851 8.59378V12.4818L59.8018 12.4815ZM62.4374 6.47581H68.5139C68.7978 6.47581 68.9582 6.46003 68.9951 6.42845C69.0319 6.39687 69.0503 6.23352 69.0503 5.93839V3.75744C69.0503 3.46248 69.0319 3.29656 68.9951 3.25969C68.9582 3.22282 68.7978 3.20438 68.5139 3.20438H62.4374C62.1428 3.20438 61.9772 3.22282 61.9403 3.25969C61.9035 3.29656 61.8851 3.46248 61.8851 3.75744V5.93839C61.8851 6.23352 61.9035 6.39687 61.9403 6.42845C61.9772 6.46003 62.1428 6.47581 62.4374 6.47581V6.47581Z" fill="#333333"/>
<path d="M78.1674 12.4815C77.5676 12.4815 77.052 12.2658 76.6208 11.8343C76.1895 11.4028 75.9738 10.8873 75.9736 10.2877V9.42085H78.057V9.83126C78.057 10.126 78.0754 10.2917 78.1122 10.3284C78.1489 10.3655 78.3146 10.3836 78.6093 10.3836H84.6865C84.9809 10.3836 85.1466 10.3655 85.1835 10.3284C85.2204 10.2912 85.2388 10.126 85.2388 9.83126V8.39468C85.2388 8.10027 85.2204 7.93713 85.1835 7.90526C85.1467 7.87339 84.981 7.85762 84.6865 7.85795H78.1674C77.5676 7.85795 77.052 7.63965 76.6208 7.20306C76.1895 6.76648 75.9738 6.24823 75.9736 5.64834V3.31217C75.9736 2.71244 76.1894 2.19683 76.6208 1.76536C77.0522 1.3339 77.5678 1.11816 78.1674 1.11816H85.1434C85.7431 1.11816 86.2586 1.3339 86.6901 1.76536C87.1215 2.19683 87.3372 2.71244 87.3372 3.31217V4.17907H85.238V3.76865C85.238 3.47407 85.2196 3.30837 85.1828 3.27155C85.146 3.23472 84.9805 3.21631 84.6865 3.21631H78.6093C78.3146 3.21631 78.1489 3.23472 78.1122 3.27155C78.0756 3.30837 78.0572 3.47407 78.057 3.76865V5.20523C78.057 5.49998 78.0754 5.66312 78.1122 5.69466C78.149 5.7262 78.3147 5.74197 78.6093 5.74197H85.1434C85.7431 5.74197 86.2586 5.96034 86.6901 6.39709C87.1215 6.83385 87.3372 7.35209 87.3372 7.95182V10.2877C87.3372 10.8876 87.1215 11.4032 86.6901 11.8345C86.2586 12.2658 85.7431 12.4816 85.1434 12.4818L78.1674 12.4815Z" fill="#333333"/>
<path d="M27.2998 16.9815C27.2998 15.8159 28.1963 14.9814 29.4009 14.9814C30.0693 14.9814 30.6277 15.2246 30.9921 15.6666L30.4176 16.1971C30.1579 15.8988 29.8318 15.7439 29.4452 15.7439C28.7213 15.7439 28.2075 16.2523 28.2075 16.9815C28.2075 17.7106 28.7213 18.219 29.4452 18.219C29.8318 18.219 30.1579 18.0644 30.4176 17.7605L30.9921 18.291C30.6279 18.7392 30.0693 18.9815 29.3953 18.9815C28.1963 18.9815 27.2998 18.1473 27.2998 16.9815Z" fill="#333333"/>
<path d="M36.8624 18.1107H35.064L34.7207 18.9432H33.8008L35.528 15.0586H36.4139L38.147 18.9432H37.2057L36.8624 18.1107ZM36.5798 17.427L35.965 15.9398L35.3506 17.427H36.5798Z" fill="#333333"/>
<path d="M44.6479 16.4682C44.6479 17.3339 44.0031 17.8721 42.9716 17.8721H42.1958V18.9432H41.3018V15.0586H42.9716C44.0031 15.0586 44.6479 15.5968 44.6479 16.4682ZM43.7441 16.4682C43.7441 16.0408 43.4687 15.7912 42.923 15.7912H42.1966V17.1395H42.923C43.4687 17.1395 43.7441 16.8899 43.7441 16.4682Z" fill="#333333"/>
<path d="M48.0703 15.0586H48.9549V18.9432H48.0703V15.0586Z" fill="#333333"/>
<path d="M53.4524 15.7905H52.2236V15.0586H55.5698V15.7905H54.341V18.9432H53.451L53.4524 15.7905Z" fill="#333333"/>
<path d="M61.2091 18.1107H59.4098L59.0665 18.9432H58.1475L59.8749 15.0586H60.7606L62.4936 18.9432H61.5538L61.2091 18.1107ZM60.9267 17.4281L60.3123 15.9409L59.6975 17.4281H60.9267Z" fill="#333333"/>
<path d="M65.6475 15.0586H66.5472V18.2113H68.4936V18.9432H65.6475V15.0586Z" fill="#333333"/>
<path d="M10.3375 9.36488V11.6688C10.3375 11.9342 10.229 12.188 10.0371 12.3713L3.80241 18.3264C3.16878 18.9316 3.59715 20.0003 4.47338 20.0003H13.1127C13.3703 20.0003 13.6174 19.8979 13.7996 19.7157L18.545 14.9703C18.7272 14.7881 18.8295 14.541 18.8295 14.2834V10.3869C18.8295 10.1293 18.7272 9.88217 18.545 9.69999L14.7594 5.91441C14.3801 5.53504 13.765 5.53504 13.3856 5.91441L10.6221 8.67798C10.4399 8.86016 10.3375 9.10724 10.3375 9.36488Z" fill="#333333"/>
<path d="M8.49157 10.6351L8.49157 8.3312C8.49157 8.06583 8.60013 7.81202 8.79202 7.62873L15.0267 1.67364C15.6603 1.06842 15.232 -0.000257177 14.3557 -0.000257253L5.71641 -0.000258009C5.45877 -0.000258031 5.21169 0.102088 5.02951 0.284265L0.284079 5.02969C0.101902 5.21187 -0.000444864 5.45895 -0.000444887 5.71659L-0.000445227 9.6131C-0.00044525 9.87074 0.101902 10.1178 0.284079 10.3L4.06967 14.0856C4.44903 14.465 5.0641 14.465 5.44347 14.0856L8.20704 11.322C8.38922 11.1398 8.49157 10.8928 8.49157 10.6351Z" fill="#333333"/>
</svg>
