<svg width="259" height="54" viewBox="0 0 259 54" fill="none" xmlns="http://www.w3.org/2000/svg">
<path d="M55.6949 44.8974C47.1282 41.6695 35.2667 42.6079 1 52.6143H253C255.761 52.6143 258 50.3757 258 47.6143V1.61426C240.208 11.2978 213.19 9.77838 207.918 8.74547C201.328 7.45433 200.669 11.3278 192.762 13.2645C184.854 15.2012 188.149 5.1949 180.9 5.84047C173.651 6.48604 173.651 17.1379 172.333 23.2708C171.015 29.4038 169.697 31.6632 168.379 39.0873C167.062 46.5113 155.2 44.8974 154.541 37.1506C154.061 31.5128 149.365 27.1146 146.701 24.8272C146.296 24.479 145.687 24.5158 145.344 24.9251C143.108 27.5861 139.864 32.7434 139.385 39.0873C138.726 47.8025 129.5 41.6696 125.546 41.6696C122.383 41.6696 120.274 39.0873 118.297 41.6696C115.442 43.7139 108.676 46.576 104.459 41.6696C99.1872 35.5367 79.418 46.5114 75.4641 47.8026C71.5103 49.0937 64.2615 48.1252 55.6949 44.8974Z" fill="#DCDFFF"/>
<path d="M1 52.6143C35.2667 42.6079 47.1282 41.6695 55.6949 44.8974C64.2615 48.1252 71.5103 49.0937 75.4641 47.8025C79.4179 46.5114 99.1872 35.5367 104.459 41.6696C108.676 46.576 115.442 43.7139 118.297 41.6696C120.274 39.0873 122.383 41.6696 125.546 41.6696C129.5 41.6696 138.726 47.8025 139.385 39.0873C139.864 32.7434 143.108 27.5861 145.344 24.9251C145.687 24.5158 146.296 24.479 146.701 24.8272C149.365 27.1146 154.061 31.5128 154.541 37.1506C155.2 44.8974 167.062 46.5114 168.379 39.0873C169.697 31.6633 171.015 29.4038 172.333 23.2708C173.651 17.1379 173.651 6.48604 180.9 5.84047C188.149 5.1949 184.854 15.2012 192.762 13.2645C200.669 11.3278 201.328 7.45433 207.918 8.74547C213.19 9.77838 240.208 11.2978 258 1.61426" stroke="#1348E4" stroke-width="2" stroke-linecap="round"/>
</svg>
